<svg xmlns="http://www.w3.org/2000/svg" xmlns:xlink="http://www.w3.org/1999/xlink" width="500" zoomAndPan="magnify" viewBox="0 0 375 374.999991" height="500" preserveAspectRatio="xMidYMid meet" version="1.0"><defs><g/><clipPath id="e15a806ac8"><path d="M 106.25 176.894531 L 283.25 176.894531 L 283.25 263.144531 L 106.25 263.144531 Z M 106.25 176.894531 " clip-rule="nonzero"/></clipPath></defs><g fill="#f4e83e" fill-opacity="1"><g transform="translate(112.087308, 175.897431)"><g><path d="M 7.234375 -16.953125 C 7.234375 -17.023438 7.210938 -17.15625 7.171875 -17.34375 C 7.140625 -17.539062 7.113281 -17.742188 7.09375 -17.953125 C 7.082031 -18.160156 7.066406 -18.363281 7.046875 -18.5625 C 7.035156 -18.757812 7.03125 -18.910156 7.03125 -19.015625 C 6.988281 -19.535156 6.941406 -20.316406 6.890625 -21.359375 C 6.835938 -22.398438 6.785156 -23.472656 6.734375 -24.578125 C 6.679688 -25.691406 6.632812 -26.710938 6.59375 -27.640625 C 6.5625 -28.578125 6.546875 -29.171875 6.546875 -29.421875 L 6.546875 -41.1875 C 6.578125 -41.570312 6.644531 -41.90625 6.75 -42.1875 C 6.863281 -42.476562 7.023438 -42.816406 7.234375 -43.203125 C 7.441406 -43.484375 7.816406 -43.628906 8.359375 -43.640625 C 8.910156 -43.660156 9.328125 -43.671875 9.609375 -43.671875 C 9.785156 -43.671875 10.054688 -43.660156 10.421875 -43.640625 C 10.796875 -43.628906 11.019531 -43.625 11.09375 -43.625 C 11.476562 -43.625 11.992188 -43.613281 12.640625 -43.59375 C 13.296875 -43.570312 13.921875 -43.546875 14.515625 -43.515625 C 15.222656 -43.484375 15.945312 -43.445312 16.6875 -43.40625 L 17.15625 -43.203125 L 17.15625 -40.984375 C 17.15625 -39.078125 17.117188 -37.179688 17.046875 -35.296875 C 16.984375 -33.421875 16.953125 -31.53125 16.953125 -29.625 L 16.953125 -29.421875 C 16.984375 -29.421875 17.019531 -29.4375 17.0625 -29.46875 C 17.125 -29.539062 17.15625 -29.59375 17.15625 -29.625 C 17.269531 -29.726562 17.410156 -29.90625 17.578125 -30.15625 C 17.753906 -30.40625 17.941406 -30.660156 18.140625 -30.921875 C 18.335938 -31.179688 18.515625 -31.425781 18.671875 -31.65625 C 18.828125 -31.882812 18.941406 -32.035156 19.015625 -32.109375 C 19.046875 -32.179688 19.148438 -32.375 19.328125 -32.6875 C 19.503906 -33.007812 19.609375 -33.203125 19.640625 -33.265625 C 19.859375 -33.585938 20.25 -34.117188 20.8125 -34.859375 C 21.375 -35.597656 21.96875 -36.390625 22.59375 -37.234375 C 23.226562 -38.078125 23.828125 -38.875 24.390625 -39.625 C 24.960938 -40.382812 25.351562 -40.90625 25.5625 -41.1875 C 25.84375 -41.570312 26.226562 -42.019531 26.71875 -42.53125 C 27.21875 -43.050781 27.660156 -43.503906 28.046875 -43.890625 C 28.222656 -43.890625 28.546875 -43.894531 29.015625 -43.90625 C 29.492188 -43.925781 29.992188 -43.953125 30.515625 -43.984375 C 31.046875 -44.023438 31.550781 -44.050781 32.03125 -44.0625 C 32.507812 -44.082031 32.832031 -44.09375 33 -44.09375 L 35.703125 -44.09375 C 36.117188 -44.019531 36.570312 -43.992188 37.0625 -44.015625 C 37.5625 -44.035156 38.003906 -43.90625 38.390625 -43.625 C 38.429688 -43.625 38.476562 -43.585938 38.53125 -43.515625 C 38.582031 -43.441406 38.625 -43.40625 38.65625 -43.40625 L 38.65625 -43.25 C 38.65625 -43.144531 38.609375 -42.992188 38.515625 -42.796875 C 38.429688 -42.609375 38.328125 -42.40625 38.203125 -42.1875 C 38.085938 -41.976562 37.96875 -41.785156 37.84375 -41.609375 C 37.71875 -41.429688 37.601562 -41.289062 37.5 -41.1875 C 37.28125 -40.945312 36.90625 -40.523438 36.375 -39.921875 C 35.851562 -39.328125 35.289062 -38.691406 34.6875 -38.015625 C 34.09375 -37.347656 33.519531 -36.707031 32.96875 -36.09375 C 32.425781 -35.476562 32.050781 -35.046875 31.84375 -34.796875 C 31.738281 -34.691406 31.367188 -34.234375 30.734375 -33.421875 C 30.097656 -32.617188 29.363281 -31.671875 28.53125 -30.578125 C 27.707031 -29.484375 26.863281 -28.378906 26 -27.265625 C 25.144531 -26.160156 24.453125 -25.273438 23.921875 -24.609375 C 23.816406 -24.472656 23.703125 -24.296875 23.578125 -24.078125 C 23.453125 -23.867188 23.335938 -23.675781 23.234375 -23.5 C 23.335938 -23.394531 23.492188 -23.191406 23.703125 -22.890625 C 23.921875 -22.585938 24.144531 -22.257812 24.375 -21.90625 C 24.601562 -21.5625 24.832031 -21.238281 25.0625 -20.9375 C 25.289062 -20.632812 25.457031 -20.429688 25.5625 -20.328125 C 25.695312 -20.148438 25.929688 -19.867188 26.265625 -19.484375 C 26.609375 -19.097656 26.8125 -18.867188 26.875 -18.796875 C 26.945312 -18.722656 27.140625 -18.585938 27.453125 -18.390625 C 27.773438 -18.203125 27.972656 -18.09375 28.046875 -18.0625 L 28.25 -17.84375 C 28.632812 -17.28125 29.039062 -16.742188 29.46875 -16.234375 C 29.894531 -15.722656 30.316406 -15.207031 30.734375 -14.6875 C 30.910156 -14.46875 30.988281 -14.28125 30.96875 -14.125 C 30.957031 -13.96875 31.019531 -13.785156 31.15625 -13.578125 C 31.226562 -13.503906 31.382812 -13.316406 31.625 -13.015625 C 31.875 -12.710938 32.035156 -12.53125 32.109375 -12.46875 C 32.492188 -11.863281 32.894531 -11.28125 33.3125 -10.71875 C 33.738281 -10.15625 34.164062 -9.609375 34.59375 -9.078125 C 34.625 -9.015625 34.71875 -8.894531 34.875 -8.71875 C 35.039062 -8.539062 35.207031 -8.351562 35.375 -8.15625 C 35.550781 -7.96875 35.71875 -7.773438 35.875 -7.578125 C 36.039062 -7.378906 36.140625 -7.265625 36.171875 -7.234375 C 36.242188 -7.128906 36.421875 -6.890625 36.703125 -6.515625 C 36.984375 -6.148438 37.289062 -5.742188 37.625 -5.296875 C 37.957031 -4.859375 38.28125 -4.4375 38.59375 -4.03125 C 38.914062 -3.632812 39.164062 -3.347656 39.34375 -3.171875 C 39.625 -2.785156 39.851562 -2.414062 40.03125 -2.0625 C 40.207031 -1.707031 40.296875 -1.285156 40.296875 -0.796875 C 40.296875 -0.722656 40.285156 -0.585938 40.265625 -0.390625 C 40.242188 -0.203125 40.234375 -0.0703125 40.234375 0 C 40.171875 0.03125 40.023438 0.0703125 39.796875 0.125 C 39.566406 0.1875 39.414062 0.21875 39.34375 0.21875 C 39.195312 0.21875 38.945312 0.234375 38.59375 0.265625 C 38.25 0.296875 37.875 0.320312 37.46875 0.34375 C 37.0625 0.363281 36.664062 0.390625 36.28125 0.421875 C 35.894531 0.453125 35.628906 0.46875 35.484375 0.46875 L 30.953125 0.46875 C 30.453125 0.332031 30.023438 0.0820312 29.671875 -0.28125 C 29.328125 -0.65625 29.015625 -1.019531 28.734375 -1.375 C 28.628906 -1.507812 28.347656 -1.84375 27.890625 -2.375 C 27.429688 -2.90625 26.945312 -3.476562 26.4375 -4.09375 C 25.925781 -4.707031 25.445312 -5.273438 25 -5.796875 C 24.5625 -6.328125 24.289062 -6.648438 24.1875 -6.765625 C 24.113281 -6.828125 23.953125 -6.984375 23.703125 -7.234375 C 23.460938 -7.484375 23.304688 -7.640625 23.234375 -7.703125 C 23.234375 -7.742188 23.195312 -7.851562 23.125 -8.03125 C 23.0625 -8.207031 23.03125 -8.328125 23.03125 -8.390625 C 22.988281 -8.429688 22.921875 -8.539062 22.828125 -8.71875 C 22.742188 -8.894531 22.671875 -9.015625 22.609375 -9.078125 C 22.535156 -9.148438 22.359375 -9.335938 22.078125 -9.640625 C 21.796875 -9.941406 21.503906 -10.265625 21.203125 -10.609375 C 20.898438 -10.960938 20.617188 -11.296875 20.359375 -11.609375 C 20.097656 -11.929688 19.929688 -12.144531 19.859375 -12.25 C 19.785156 -12.320312 19.644531 -12.503906 19.4375 -12.796875 C 19.226562 -13.097656 19 -13.425781 18.75 -13.78125 C 18.5 -14.132812 18.257812 -14.46875 18.03125 -14.78125 C 17.800781 -15.101562 17.671875 -15.300781 17.640625 -15.375 C 17.566406 -15.4375 17.414062 -15.582031 17.1875 -15.8125 C 16.957031 -16.039062 16.789062 -16.191406 16.6875 -16.265625 L 16.6875 -15.84375 C 16.6875 -15.769531 16.703125 -15.59375 16.734375 -15.3125 C 16.773438 -15.03125 16.8125 -14.738281 16.84375 -14.4375 C 16.882812 -14.144531 16.910156 -13.863281 16.921875 -13.59375 C 16.941406 -13.332031 16.953125 -13.164062 16.953125 -13.09375 L 16.953125 -8.234375 C 16.953125 -6.898438 16.953125 -5.523438 16.953125 -4.109375 C 16.953125 -2.703125 16.863281 -1.332031 16.6875 0 C 16.6875 0.144531 16.617188 0.21875 16.484375 0.21875 C 15.671875 0.457031 14.8125 0.59375 13.90625 0.625 C 13.007812 0.664062 12.140625 0.6875 11.296875 0.6875 L 10.828125 0.6875 C 10.617188 0.6875 10.351562 0.664062 10.03125 0.625 C 9.71875 0.59375 9.398438 0.566406 9.078125 0.546875 C 8.765625 0.535156 8.492188 0.519531 8.265625 0.5 C 8.035156 0.476562 7.921875 0.46875 7.921875 0.46875 L 7.453125 0.21875 C 7.410156 -0.59375 7.375 -1.390625 7.34375 -2.171875 C 7.300781 -2.796875 7.269531 -3.453125 7.25 -4.140625 C 7.238281 -4.828125 7.234375 -5.398438 7.234375 -5.859375 Z M 7.234375 -16.953125 "/></g></g></g><g fill="#ff00ff" fill-opacity="1"><g transform="translate(154.286077, 175.897431)"><g><path d="M 4.546875 0 C 4.398438 -0.03125 4.328125 -0.113281 4.328125 -0.25 C 4.328125 -0.394531 4.328125 -0.523438 4.328125 -0.640625 C 4.328125 -0.921875 4.445312 -1.226562 4.6875 -1.5625 C 4.9375 -1.894531 5.117188 -2.203125 5.234375 -2.484375 C 5.265625 -2.585938 5.332031 -2.785156 5.4375 -3.078125 C 5.539062 -3.378906 5.65625 -3.710938 5.78125 -4.078125 C 5.90625 -4.453125 6.019531 -4.789062 6.125 -5.09375 C 6.226562 -5.394531 6.300781 -5.597656 6.34375 -5.703125 C 6.375 -5.804688 6.429688 -5.960938 6.515625 -6.171875 C 6.609375 -6.390625 6.707031 -6.617188 6.8125 -6.859375 C 6.914062 -7.109375 7.007812 -7.328125 7.09375 -7.515625 C 7.1875 -7.710938 7.234375 -7.847656 7.234375 -7.921875 C 7.265625 -7.953125 7.332031 -8.054688 7.4375 -8.234375 C 7.550781 -8.410156 7.660156 -8.601562 7.765625 -8.8125 C 7.867188 -9.03125 7.960938 -9.21875 8.046875 -9.375 C 8.140625 -9.53125 8.1875 -9.644531 8.1875 -9.71875 C 8.21875 -9.851562 8.359375 -10.238281 8.609375 -10.875 C 8.859375 -11.507812 9.125 -12.1875 9.40625 -12.90625 C 9.6875 -13.632812 9.945312 -14.304688 10.1875 -14.921875 C 10.4375 -15.535156 10.597656 -15.929688 10.671875 -16.109375 C 10.734375 -16.242188 10.878906 -16.53125 11.109375 -16.96875 C 11.335938 -17.414062 11.488281 -17.707031 11.5625 -17.84375 L 20.125 -41.34375 C 20.15625 -41.414062 20.210938 -41.546875 20.296875 -41.734375 C 20.390625 -41.929688 20.476562 -42.132812 20.5625 -42.34375 C 20.65625 -42.5625 20.742188 -42.765625 20.828125 -42.953125 C 20.921875 -43.148438 20.984375 -43.300781 21.015625 -43.40625 L 21.28125 -43.671875 L 22.859375 -43.671875 C 23.003906 -43.671875 23.359375 -43.648438 23.921875 -43.609375 C 24.484375 -43.578125 25.097656 -43.550781 25.765625 -43.53125 C 26.441406 -43.519531 27.0625 -43.492188 27.625 -43.453125 C 28.1875 -43.421875 28.554688 -43.40625 28.734375 -43.40625 C 28.972656 -43.40625 29.195312 -43.414062 29.40625 -43.4375 C 29.625 -43.457031 29.859375 -43.378906 30.109375 -43.203125 C 30.390625 -42.984375 30.632812 -42.734375 30.84375 -42.453125 C 31.050781 -42.171875 31.242188 -41.890625 31.421875 -41.609375 C 31.523438 -41.429688 31.664062 -41.203125 31.84375 -40.921875 C 32.019531 -40.640625 32.1875 -40.359375 32.34375 -40.078125 C 32.5 -39.796875 32.644531 -39.539062 32.78125 -39.3125 C 32.925781 -39.082031 33.019531 -38.953125 33.0625 -38.921875 C 33.164062 -38.671875 33.335938 -38.289062 33.578125 -37.78125 C 33.828125 -37.269531 34.082031 -36.734375 34.34375 -36.171875 C 34.613281 -35.609375 34.851562 -35.097656 35.0625 -34.640625 C 35.28125 -34.179688 35.421875 -33.882812 35.484375 -33.75 C 35.523438 -33.644531 35.597656 -33.421875 35.703125 -33.078125 C 35.804688 -32.742188 35.925781 -32.382812 36.0625 -32 C 36.207031 -31.613281 36.332031 -31.253906 36.4375 -30.921875 C 36.539062 -30.585938 36.613281 -30.367188 36.65625 -30.265625 C 37.320312 -28.398438 38.128906 -26.59375 39.078125 -24.84375 C 40.023438 -23.101562 40.867188 -21.316406 41.609375 -19.484375 C 41.679688 -19.273438 41.835938 -18.84375 42.078125 -18.1875 C 42.328125 -17.539062 42.617188 -16.773438 42.953125 -15.890625 C 43.296875 -15.015625 43.640625 -14.082031 43.984375 -13.09375 C 44.335938 -12.113281 44.679688 -11.191406 45.015625 -10.328125 C 45.347656 -9.460938 45.640625 -8.710938 45.890625 -8.078125 C 46.140625 -7.441406 46.300781 -7.019531 46.375 -6.8125 C 46.40625 -6.664062 46.539062 -6.335938 46.78125 -5.828125 C 47.03125 -5.316406 47.191406 -4.976562 47.265625 -4.8125 C 47.335938 -4.632812 47.460938 -4.375 47.640625 -4.03125 C 47.816406 -3.695312 47.988281 -3.335938 48.15625 -2.953125 C 48.332031 -2.566406 48.507812 -2.207031 48.6875 -1.875 C 48.863281 -1.539062 48.988281 -1.300781 49.0625 -1.15625 L 49.0625 -0.953125 C 49.0625 -0.773438 48.988281 -0.625 48.84375 -0.5 C 48.707031 -0.375 48.539062 -0.273438 48.34375 -0.203125 C 48.15625 -0.140625 47.953125 -0.0859375 47.734375 -0.046875 C 47.523438 -0.015625 47.367188 0 47.265625 0 C 47.160156 0 46.894531 0 46.46875 0 C 46.050781 0 45.601562 0 45.125 0 C 44.644531 0 44.191406 0 43.765625 0 C 43.347656 0 43.085938 0 42.984375 0 C 42.492188 0 41.992188 0.078125 41.484375 0.234375 C 40.972656 0.390625 40.4375 0.46875 39.875 0.46875 C 39.59375 0.46875 39.363281 0.457031 39.1875 0.4375 C 39.007812 0.425781 38.765625 0.351562 38.453125 0.21875 C 38.453125 0.21875 38.414062 0.179688 38.34375 0.109375 L 38.234375 0 C 37.921875 -0.59375 37.679688 -1.070312 37.515625 -1.4375 C 37.359375 -1.8125 37.140625 -2.316406 36.859375 -2.953125 C 36.785156 -3.023438 36.660156 -3.253906 36.484375 -3.640625 C 36.316406 -4.023438 36.210938 -4.253906 36.171875 -4.328125 C 35.960938 -4.992188 35.835938 -5.570312 35.796875 -6.0625 C 35.765625 -6.5625 35.519531 -7.109375 35.0625 -7.703125 C 35.03125 -7.742188 34.960938 -7.789062 34.859375 -7.84375 C 34.753906 -7.894531 34.664062 -7.921875 34.59375 -7.921875 C 34.3125 -7.921875 33.84375 -7.9375 33.1875 -7.96875 C 32.539062 -8.007812 31.847656 -8.035156 31.109375 -8.046875 C 30.367188 -8.066406 29.660156 -8.09375 28.984375 -8.125 C 28.316406 -8.164062 27.84375 -8.1875 27.5625 -8.1875 C 27.5 -8.1875 27.351562 -8.191406 27.125 -8.203125 C 26.894531 -8.222656 26.640625 -8.25 26.359375 -8.28125 C 26.078125 -8.320312 25.8125 -8.347656 25.5625 -8.359375 C 25.3125 -8.378906 25.171875 -8.390625 25.140625 -8.390625 L 24.140625 -8.390625 C 23.148438 -8.390625 22.171875 -8.351562 21.203125 -8.28125 C 20.234375 -8.21875 19.273438 -8.097656 18.328125 -7.921875 C 17.722656 -7.816406 17.289062 -7.539062 17.03125 -7.09375 C 16.769531 -6.65625 16.515625 -6.191406 16.265625 -5.703125 C 16.234375 -5.597656 16.160156 -5.40625 16.046875 -5.125 C 15.941406 -4.84375 15.828125 -4.550781 15.703125 -4.25 C 15.585938 -3.945312 15.472656 -3.671875 15.359375 -3.421875 C 15.253906 -3.179688 15.1875 -3.023438 15.15625 -2.953125 C 15.125 -2.890625 15.0625 -2.722656 14.96875 -2.453125 C 14.882812 -2.191406 14.785156 -1.910156 14.671875 -1.609375 C 14.566406 -1.304688 14.472656 -1.023438 14.390625 -0.765625 C 14.304688 -0.503906 14.265625 -0.335938 14.265625 -0.265625 C 13.984375 0.441406 13.664062 0.8125 13.3125 0.84375 C 12.957031 0.875 12.445312 0.890625 11.78125 0.890625 C 10.539062 0.890625 9.359375 0.738281 8.234375 0.4375 C 7.109375 0.144531 5.878906 0 4.546875 0 Z M 26.03125 -29.203125 C 26 -29.171875 25.957031 -29.09375 25.90625 -28.96875 C 25.851562 -28.84375 25.828125 -28.765625 25.828125 -28.734375 C 25.828125 -28.660156 25.789062 -28.535156 25.71875 -28.359375 C 25.644531 -28.179688 25.5625 -27.992188 25.46875 -27.796875 C 25.382812 -27.609375 25.304688 -27.414062 25.234375 -27.21875 C 25.171875 -27.03125 25.140625 -26.914062 25.140625 -26.875 C 25.097656 -26.84375 25.035156 -26.726562 24.953125 -26.53125 C 24.867188 -26.34375 24.769531 -26.132812 24.65625 -25.90625 C 24.550781 -25.675781 24.453125 -25.453125 24.359375 -25.234375 C 24.273438 -25.023438 24.21875 -24.90625 24.1875 -24.875 C 24.007812 -24.445312 23.796875 -23.878906 23.546875 -23.171875 C 23.304688 -22.472656 23.0625 -21.78125 22.8125 -21.09375 C 22.5625 -20.40625 22.359375 -19.816406 22.203125 -19.328125 C 22.046875 -18.835938 21.96875 -18.59375 21.96875 -18.59375 L 21.96875 -18.109375 L 30.578125 -18.109375 C 30.609375 -18.109375 30.675781 -18.171875 30.78125 -18.296875 C 30.894531 -18.421875 30.984375 -18.519531 31.046875 -18.59375 L 31.046875 -18.796875 C 31.046875 -19.078125 30.957031 -19.421875 30.78125 -19.828125 C 30.613281 -20.234375 30.472656 -20.5625 30.359375 -20.8125 C 30.046875 -21.40625 29.660156 -22.160156 29.203125 -23.078125 C 28.742188 -23.992188 28.296875 -24.882812 27.859375 -25.75 C 27.421875 -26.613281 27.039062 -27.359375 26.71875 -27.984375 C 26.40625 -28.617188 26.25 -28.9375 26.25 -28.9375 Z M 26.03125 -29.203125 "/></g></g></g><g fill="#ff00ff" fill-opacity="1"><g transform="translate(204.935164, 175.897431)"><g><path d="M 7.703125 -0.6875 C 7.703125 -1.144531 7.691406 -1.875 7.671875 -2.875 C 7.660156 -3.882812 7.632812 -5.015625 7.59375 -6.265625 C 7.5625 -7.515625 7.53125 -8.820312 7.5 -10.1875 C 7.46875 -11.5625 7.441406 -12.875 7.421875 -14.125 C 7.398438 -15.375 7.367188 -16.488281 7.328125 -17.46875 C 7.296875 -18.457031 7.265625 -19.179688 7.234375 -19.640625 C 7.234375 -19.859375 7.1875 -20.390625 7.09375 -21.234375 C 7.007812 -22.078125 6.929688 -22.984375 6.859375 -23.953125 C 6.796875 -24.921875 6.726562 -25.828125 6.65625 -26.671875 C 6.582031 -27.515625 6.546875 -28.039062 6.546875 -28.25 C 6.410156 -28.351562 6.320312 -28.703125 6.28125 -29.296875 C 6.25 -29.898438 6.238281 -30.585938 6.25 -31.359375 C 6.269531 -32.140625 6.304688 -32.925781 6.359375 -33.71875 C 6.410156 -34.507812 6.457031 -35.117188 6.5 -35.546875 C 6.5 -35.828125 6.5 -36.253906 6.5 -36.828125 C 6.5 -37.410156 6.503906 -38 6.515625 -38.59375 C 6.535156 -39.195312 6.546875 -39.742188 6.546875 -40.234375 C 6.546875 -40.734375 6.546875 -41.050781 6.546875 -41.1875 L 6.765625 -42.9375 L 7.03125 -43.203125 C 7.164062 -43.203125 7.441406 -43.191406 7.859375 -43.171875 C 8.285156 -43.148438 8.71875 -43.140625 9.15625 -43.140625 C 9.601562 -43.140625 10.023438 -43.148438 10.421875 -43.171875 C 10.828125 -43.191406 11.117188 -43.203125 11.296875 -43.203125 C 11.441406 -43.203125 11.742188 -43.21875 12.203125 -43.25 C 12.660156 -43.289062 12.957031 -43.34375 13.09375 -43.40625 L 21.921875 -43.40625 C 21.984375 -43.40625 22.140625 -43.394531 22.390625 -43.375 C 22.640625 -43.363281 22.910156 -43.347656 23.203125 -43.328125 C 23.503906 -43.316406 23.785156 -43.289062 24.046875 -43.25 C 24.316406 -43.21875 24.503906 -43.203125 24.609375 -43.203125 C 26.117188 -43.023438 27.460938 -42.515625 28.640625 -41.671875 C 29.828125 -40.828125 30.804688 -39.804688 31.578125 -38.609375 C 32.359375 -37.410156 32.945312 -36.085938 33.34375 -34.640625 C 33.75 -33.203125 33.953125 -31.796875 33.953125 -30.421875 C 33.953125 -29.398438 33.800781 -28.316406 33.5 -27.171875 C 33.207031 -26.023438 32.769531 -24.921875 32.1875 -23.859375 C 31.601562 -22.804688 30.90625 -21.863281 30.09375 -21.03125 C 29.289062 -20.207031 28.378906 -19.601562 27.359375 -19.21875 L 27.359375 -19.015625 C 27.429688 -18.941406 27.507812 -18.78125 27.59375 -18.53125 C 27.675781 -18.289062 27.738281 -18.132812 27.78125 -18.0625 C 28.132812 -17.570312 28.503906 -17.007812 28.890625 -16.375 C 29.273438 -15.738281 29.679688 -15.175781 30.109375 -14.6875 C 30.671875 -13.976562 31.175781 -13.09375 31.625 -12.03125 C 32.082031 -10.976562 32.539062 -10.046875 33 -9.234375 C 33.070312 -9.171875 33.222656 -8.960938 33.453125 -8.609375 C 33.679688 -8.253906 33.847656 -8.023438 33.953125 -7.921875 C 33.992188 -7.847656 34.097656 -7.722656 34.265625 -7.546875 C 34.441406 -7.367188 34.550781 -7.265625 34.59375 -7.234375 C 34.59375 -7.203125 34.625 -7.085938 34.6875 -6.890625 C 34.757812 -6.691406 34.796875 -6.578125 34.796875 -6.546875 C 35.117188 -5.847656 35.507812 -5.019531 35.96875 -4.0625 C 36.425781 -3.113281 36.65625 -2.234375 36.65625 -1.421875 L 36.65625 -1.375 L 36.171875 -0.890625 C 35.890625 -0.859375 35.414062 -0.816406 34.75 -0.765625 C 34.082031 -0.710938 33.378906 -0.640625 32.640625 -0.546875 C 31.898438 -0.460938 31.191406 -0.394531 30.515625 -0.34375 C 29.847656 -0.289062 29.394531 -0.25 29.15625 -0.21875 C 29.082031 -0.21875 28.882812 -0.179688 28.5625 -0.109375 C 28.25 -0.0351562 28.078125 0 28.046875 0 L 27.515625 0 C 27.160156 0 26.90625 -0.117188 26.75 -0.359375 C 26.59375 -0.609375 26.425781 -0.875 26.25 -1.15625 C 26.144531 -1.332031 25.941406 -1.675781 25.640625 -2.1875 C 25.335938 -2.695312 25.148438 -3.023438 25.078125 -3.171875 L 20.125 -13.09375 C 19.738281 -13.832031 19.304688 -14.5625 18.828125 -15.28125 C 18.347656 -16.007812 17.789062 -16.632812 17.15625 -17.15625 L 17.15625 -16.84375 C 17.15625 -16.101562 17.207031 -15.375 17.3125 -14.65625 C 17.425781 -13.9375 17.535156 -13.207031 17.640625 -12.46875 C 17.671875 -11.96875 17.703125 -11.425781 17.734375 -10.84375 C 17.773438 -10.269531 17.882812 -9.734375 18.0625 -9.234375 L 18.0625 -0.46875 C 18.0625 -0.125 17.894531 0.109375 17.5625 0.234375 C 17.226562 0.359375 16.9375 0.4375 16.6875 0.46875 C 15.875 0.582031 15.195312 0.644531 14.65625 0.65625 C 14.113281 0.675781 13.4375 0.6875 12.625 0.6875 L 11.515625 0.6875 C 11.441406 0.6875 11.304688 0.664062 11.109375 0.625 C 10.921875 0.59375 10.710938 0.550781 10.484375 0.5 C 10.253906 0.445312 10.015625 0.394531 9.765625 0.34375 C 9.523438 0.289062 9.347656 0.25 9.234375 0.21875 C 9.097656 0.175781 8.863281 0.101562 8.53125 0 C 8.195312 -0.101562 7.992188 -0.175781 7.921875 -0.21875 C 7.847656 -0.25 7.789062 -0.328125 7.75 -0.453125 C 7.71875 -0.578125 7.703125 -0.65625 7.703125 -0.6875 Z M 16.953125 -34.109375 C 16.953125 -34.078125 16.984375 -33.972656 17.046875 -33.796875 C 17.117188 -33.617188 17.15625 -33.515625 17.15625 -33.484375 L 17.15625 -32.109375 C 17.15625 -31.796875 17.171875 -31.390625 17.203125 -30.890625 C 17.242188 -30.398438 17.273438 -29.925781 17.296875 -29.46875 C 17.316406 -29.007812 17.332031 -28.613281 17.34375 -28.28125 C 17.363281 -27.945312 17.375 -27.78125 17.375 -27.78125 L 17.640625 -27.359375 C 17.773438 -27.316406 17.914062 -27.296875 18.0625 -27.296875 L 18.796875 -27.296875 C 20.140625 -27.296875 21.285156 -27.453125 22.234375 -27.765625 C 23.179688 -28.085938 24.128906 -28.757812 25.078125 -29.78125 C 25.253906 -30 25.34375 -30.210938 25.34375 -30.421875 C 25.34375 -30.628906 25.34375 -30.859375 25.34375 -31.109375 C 25.34375 -31.179688 25.332031 -31.25 25.3125 -31.3125 C 25.300781 -31.382812 25.296875 -31.457031 25.296875 -31.53125 L 25.296875 -31.84375 C 25.265625 -32.195312 25 -32.554688 24.5 -32.921875 C 24.007812 -33.296875 23.445312 -33.613281 22.8125 -33.875 C 22.175781 -34.144531 21.539062 -34.363281 20.90625 -34.53125 C 20.28125 -34.707031 19.804688 -34.796875 19.484375 -34.796875 C 19.378906 -34.796875 19.1875 -34.785156 18.90625 -34.765625 C 18.625 -34.753906 18.34375 -34.726562 18.0625 -34.6875 C 17.78125 -34.65625 17.523438 -34.601562 17.296875 -34.53125 C 17.066406 -34.46875 16.953125 -34.382812 16.953125 -34.28125 Z M 16.953125 -34.109375 "/></g></g></g><g fill="#ff00ff" fill-opacity="1"><g transform="translate(243.595363, 175.897431)"><g><path d="M 7.390625 -19.21875 C 7.359375 -19.71875 7.316406 -20.476562 7.265625 -21.5 C 7.210938 -22.519531 7.160156 -23.671875 7.109375 -24.953125 C 7.054688 -26.234375 6.992188 -27.585938 6.921875 -29.015625 C 6.847656 -30.441406 6.785156 -31.804688 6.734375 -33.109375 C 6.679688 -34.410156 6.632812 -35.570312 6.59375 -36.59375 C 6.5625 -37.613281 6.546875 -38.375 6.546875 -38.875 L 6.546875 -43.140625 C 6.546875 -43.421875 6.640625 -43.675781 6.828125 -43.90625 C 7.023438 -44.132812 7.234375 -44.320312 7.453125 -44.46875 L 11.09375 -44.46875 C 11.125 -44.46875 11.257812 -44.484375 11.5 -44.515625 C 11.75 -44.554688 12.015625 -44.582031 12.296875 -44.59375 C 12.585938 -44.613281 12.851562 -44.640625 13.09375 -44.671875 C 13.34375 -44.710938 13.503906 -44.734375 13.578125 -44.734375 C 13.785156 -44.660156 14.171875 -44.597656 14.734375 -44.546875 C 15.296875 -44.492188 15.910156 -44.46875 16.578125 -44.46875 C 17.253906 -44.46875 17.875 -44.484375 18.4375 -44.515625 C 19 -44.554688 19.382812 -44.628906 19.59375 -44.734375 L 25.078125 -44.734375 C 25.296875 -44.734375 25.6875 -44.710938 26.25 -44.671875 C 26.8125 -44.640625 27.410156 -44.597656 28.046875 -44.546875 C 28.679688 -44.492188 29.269531 -44.441406 29.8125 -44.390625 C 30.351562 -44.335938 30.734375 -44.289062 30.953125 -44.25 C 31.015625 -44.25 31.097656 -44.234375 31.203125 -44.203125 C 31.316406 -44.171875 31.390625 -44.132812 31.421875 -44.09375 C 31.523438 -43.914062 31.664062 -43.648438 31.84375 -43.296875 C 32.019531 -42.953125 32.109375 -42.757812 32.109375 -42.71875 L 32.109375 -36.546875 C 32.109375 -36.335938 31.921875 -36.109375 31.546875 -35.859375 C 31.179688 -35.609375 30.910156 -35.484375 30.734375 -35.484375 L 18.328125 -35.015625 C 18.222656 -35.015625 18.082031 -34.988281 17.90625 -34.9375 C 17.726562 -34.882812 17.640625 -34.835938 17.640625 -34.796875 C 17.609375 -34.765625 17.5625 -34.609375 17.5 -34.328125 C 17.445312 -34.046875 17.40625 -33.816406 17.375 -33.640625 C 17.375 -33.535156 17.351562 -33.394531 17.3125 -33.21875 C 17.28125 -33.039062 17.253906 -32.851562 17.234375 -32.65625 C 17.222656 -32.46875 17.207031 -32.289062 17.1875 -32.125 C 17.164062 -31.96875 17.15625 -31.875 17.15625 -31.84375 L 17.15625 -29.359375 L 18.0625 -29 L 26.875 -29 L 30.734375 -28.25 C 31.015625 -28.175781 31.242188 -27.882812 31.421875 -27.375 C 31.597656 -26.863281 31.738281 -26.300781 31.84375 -25.6875 C 31.945312 -25.070312 32.015625 -24.472656 32.046875 -23.890625 C 32.085938 -23.316406 32.109375 -22.941406 32.109375 -22.765625 C 32.109375 -21.953125 31.929688 -21.351562 31.578125 -20.96875 C 31.222656 -20.582031 30.765625 -20.304688 30.203125 -20.140625 C 29.640625 -19.984375 29.023438 -19.90625 28.359375 -19.90625 C 27.691406 -19.90625 27.039062 -19.890625 26.40625 -19.859375 C 26.09375 -19.859375 25.53125 -19.835938 24.71875 -19.796875 C 23.90625 -19.765625 23.039062 -19.738281 22.125 -19.71875 C 21.207031 -19.707031 20.34375 -19.691406 19.53125 -19.671875 C 18.726562 -19.648438 18.164062 -19.640625 17.84375 -19.640625 C 17.84375 -19.535156 17.828125 -19.332031 17.796875 -19.03125 C 17.765625 -18.738281 17.738281 -18.425781 17.71875 -18.09375 C 17.695312 -17.757812 17.675781 -17.429688 17.65625 -17.109375 C 17.644531 -16.796875 17.640625 -16.585938 17.640625 -16.484375 C 17.640625 -16.410156 17.628906 -16.117188 17.609375 -15.609375 C 17.597656 -15.097656 17.59375 -14.703125 17.59375 -14.421875 C 17.59375 -14.273438 17.59375 -14.097656 17.59375 -13.890625 C 17.59375 -13.679688 17.597656 -13.46875 17.609375 -13.25 C 17.628906 -13.039062 17.640625 -12.859375 17.640625 -12.703125 C 17.640625 -12.546875 17.640625 -12.46875 17.640625 -12.46875 C 17.640625 -12.289062 17.664062 -11.972656 17.71875 -11.515625 C 17.769531 -11.054688 17.8125 -10.753906 17.84375 -10.609375 C 17.882812 -10.398438 17.9375 -10.191406 18 -9.984375 C 18.070312 -9.773438 18.25 -9.671875 18.53125 -9.671875 L 32.3125 -9.671875 C 32.382812 -9.671875 32.578125 -9.640625 32.890625 -9.578125 C 33.210938 -9.523438 33.410156 -9.410156 33.484375 -9.234375 L 33.484375 -4.90625 C 33.484375 -4.769531 33.472656 -4.515625 33.453125 -4.140625 C 33.429688 -3.773438 33.40625 -3.390625 33.375 -2.984375 C 33.34375 -2.578125 33.316406 -2.1875 33.296875 -1.8125 C 33.273438 -1.445312 33.265625 -1.195312 33.265625 -1.0625 C 33.054688 -0.664062 32.789062 -0.429688 32.46875 -0.359375 C 32.15625 -0.296875 31.804688 -0.25 31.421875 -0.21875 C 31.109375 -0.175781 30.625 -0.117188 29.96875 -0.046875 C 29.320312 0.015625 28.644531 0.0820312 27.9375 0.15625 C 27.226562 0.226562 26.582031 0.296875 26 0.359375 C 25.425781 0.429688 25.050781 0.46875 24.875 0.46875 L 23.8125 0.46875 C 22.96875 0.46875 22.101562 0.429688 21.21875 0.359375 C 20.34375 0.296875 19.46875 0.265625 18.59375 0.265625 C 18.238281 0.265625 17.910156 0.296875 17.609375 0.359375 C 17.304688 0.429688 17 0.46875 16.6875 0.46875 C 15.5625 0.46875 14.4375 0.425781 13.3125 0.34375 C 12.1875 0.257812 11.054688 0.144531 9.921875 0 C 9.890625 0 9.75 0.00390625 9.5 0.015625 C 9.257812 0.0351562 9.117188 0.03125 9.078125 0 C 9.015625 0 8.894531 -0.0664062 8.71875 -0.203125 C 8.539062 -0.347656 8.429688 -0.421875 8.390625 -0.421875 C 8.285156 -0.492188 8.101562 -0.582031 7.84375 -0.6875 C 7.582031 -0.789062 7.453125 -0.914062 7.453125 -1.0625 L 7.390625 -17.84375 Z M 7.390625 -19.21875 "/></g></g></g><g fill="#00ffff" fill-opacity="1"><g transform="translate(110.59986, 175.897431)"><g><path d="M 7.234375 -16.953125 C 7.234375 -17.023438 7.210938 -17.15625 7.171875 -17.34375 C 7.140625 -17.539062 7.113281 -17.742188 7.09375 -17.953125 C 7.082031 -18.160156 7.066406 -18.363281 7.046875 -18.5625 C 7.035156 -18.757812 7.03125 -18.910156 7.03125 -19.015625 C 6.988281 -19.535156 6.941406 -20.316406 6.890625 -21.359375 C 6.835938 -22.398438 6.785156 -23.472656 6.734375 -24.578125 C 6.679688 -25.691406 6.632812 -26.710938 6.59375 -27.640625 C 6.5625 -28.578125 6.546875 -29.171875 6.546875 -29.421875 L 6.546875 -41.1875 C 6.578125 -41.570312 6.644531 -41.90625 6.75 -42.1875 C 6.863281 -42.476562 7.023438 -42.816406 7.234375 -43.203125 C 7.441406 -43.484375 7.816406 -43.628906 8.359375 -43.640625 C 8.910156 -43.660156 9.328125 -43.671875 9.609375 -43.671875 C 9.785156 -43.671875 10.054688 -43.660156 10.421875 -43.640625 C 10.796875 -43.628906 11.019531 -43.625 11.09375 -43.625 C 11.476562 -43.625 11.992188 -43.613281 12.640625 -43.59375 C 13.296875 -43.570312 13.921875 -43.546875 14.515625 -43.515625 C 15.222656 -43.484375 15.945312 -43.445312 16.6875 -43.40625 L 17.15625 -43.203125 L 17.15625 -40.984375 C 17.15625 -39.078125 17.117188 -37.179688 17.046875 -35.296875 C 16.984375 -33.421875 16.953125 -31.53125 16.953125 -29.625 L 16.953125 -29.421875 C 16.984375 -29.421875 17.019531 -29.4375 17.0625 -29.46875 C 17.125 -29.539062 17.15625 -29.59375 17.15625 -29.625 C 17.269531 -29.726562 17.410156 -29.90625 17.578125 -30.15625 C 17.753906 -30.40625 17.941406 -30.660156 18.140625 -30.921875 C 18.335938 -31.179688 18.515625 -31.425781 18.671875 -31.65625 C 18.828125 -31.882812 18.941406 -32.035156 19.015625 -32.109375 C 19.046875 -32.179688 19.148438 -32.375 19.328125 -32.6875 C 19.503906 -33.007812 19.609375 -33.203125 19.640625 -33.265625 C 19.859375 -33.585938 20.25 -34.117188 20.8125 -34.859375 C 21.375 -35.597656 21.96875 -36.390625 22.59375 -37.234375 C 23.226562 -38.078125 23.828125 -38.875 24.390625 -39.625 C 24.960938 -40.382812 25.351562 -40.90625 25.5625 -41.1875 C 25.84375 -41.570312 26.226562 -42.019531 26.71875 -42.53125 C 27.21875 -43.050781 27.660156 -43.503906 28.046875 -43.890625 C 28.222656 -43.890625 28.546875 -43.894531 29.015625 -43.90625 C 29.492188 -43.925781 29.992188 -43.953125 30.515625 -43.984375 C 31.046875 -44.023438 31.550781 -44.050781 32.03125 -44.0625 C 32.507812 -44.082031 32.832031 -44.09375 33 -44.09375 L 35.703125 -44.09375 C 36.117188 -44.019531 36.570312 -43.992188 37.0625 -44.015625 C 37.5625 -44.035156 38.003906 -43.90625 38.390625 -43.625 C 38.429688 -43.625 38.476562 -43.585938 38.53125 -43.515625 C 38.582031 -43.441406 38.625 -43.40625 38.65625 -43.40625 L 38.65625 -43.25 C 38.65625 -43.144531 38.609375 -42.992188 38.515625 -42.796875 C 38.429688 -42.609375 38.328125 -42.40625 38.203125 -42.1875 C 38.085938 -41.976562 37.96875 -41.785156 37.84375 -41.609375 C 37.71875 -41.429688 37.601562 -41.289062 37.5 -41.1875 C 37.28125 -40.945312 36.90625 -40.523438 36.375 -39.921875 C 35.851562 -39.328125 35.289062 -38.691406 34.6875 -38.015625 C 34.09375 -37.347656 33.519531 -36.707031 32.96875 -36.09375 C 32.425781 -35.476562 32.050781 -35.046875 31.84375 -34.796875 C 31.738281 -34.691406 31.367188 -34.234375 30.734375 -33.421875 C 30.097656 -32.617188 29.363281 -31.671875 28.53125 -30.578125 C 27.707031 -29.484375 26.863281 -28.378906 26 -27.265625 C 25.144531 -26.160156 24.453125 -25.273438 23.921875 -24.609375 C 23.816406 -24.472656 23.703125 -24.296875 23.578125 -24.078125 C 23.453125 -23.867188 23.335938 -23.675781 23.234375 -23.5 C 23.335938 -23.394531 23.492188 -23.191406 23.703125 -22.890625 C 23.921875 -22.585938 24.144531 -22.257812 24.375 -21.90625 C 24.601562 -21.5625 24.832031 -21.238281 25.0625 -20.9375 C 25.289062 -20.632812 25.457031 -20.429688 25.5625 -20.328125 C 25.695312 -20.148438 25.929688 -19.867188 26.265625 -19.484375 C 26.609375 -19.097656 26.8125 -18.867188 26.875 -18.796875 C 26.945312 -18.722656 27.140625 -18.585938 27.453125 -18.390625 C 27.773438 -18.203125 27.972656 -18.09375 28.046875 -18.0625 L 28.25 -17.84375 C 28.632812 -17.28125 29.039062 -16.742188 29.46875 -16.234375 C 29.894531 -15.722656 30.316406 -15.207031 30.734375 -14.6875 C 30.910156 -14.46875 30.988281 -14.28125 30.96875 -14.125 C 30.957031 -13.96875 31.019531 -13.785156 31.15625 -13.578125 C 31.226562 -13.503906 31.382812 -13.316406 31.625 -13.015625 C 31.875 -12.710938 32.035156 -12.53125 32.109375 -12.46875 C 32.492188 -11.863281 32.894531 -11.28125 33.3125 -10.71875 C 33.738281 -10.15625 34.164062 -9.609375 34.59375 -9.078125 C 34.625 -9.015625 34.71875 -8.894531 34.875 -8.71875 C 35.039062 -8.539062 35.207031 -8.351562 35.375 -8.15625 C 35.550781 -7.96875 35.71875 -7.773438 35.875 -7.578125 C 36.039062 -7.378906 36.140625 -7.265625 36.171875 -7.234375 C 36.242188 -7.128906 36.421875 -6.890625 36.703125 -6.515625 C 36.984375 -6.148438 37.289062 -5.742188 37.625 -5.296875 C 37.957031 -4.859375 38.28125 -4.4375 38.59375 -4.03125 C 38.914062 -3.632812 39.164062 -3.347656 39.34375 -3.171875 C 39.625 -2.785156 39.851562 -2.414062 40.03125 -2.0625 C 40.207031 -1.707031 40.296875 -1.285156 40.296875 -0.796875 C 40.296875 -0.722656 40.285156 -0.585938 40.265625 -0.390625 C 40.242188 -0.203125 40.234375 -0.0703125 40.234375 0 C 40.171875 0.03125 40.023438 0.0703125 39.796875 0.125 C 39.566406 0.1875 39.414062 0.21875 39.34375 0.21875 C 39.195312 0.21875 38.945312 0.234375 38.59375 0.265625 C 38.25 0.296875 37.875 0.320312 37.46875 0.34375 C 37.0625 0.363281 36.664062 0.390625 36.28125 0.421875 C 35.894531 0.453125 35.628906 0.46875 35.484375 0.46875 L 30.953125 0.46875 C 30.453125 0.332031 30.023438 0.0820312 29.671875 -0.28125 C 29.328125 -0.65625 29.015625 -1.019531 28.734375 -1.375 C 28.628906 -1.507812 28.347656 -1.84375 27.890625 -2.375 C 27.429688 -2.90625 26.945312 -3.476562 26.4375 -4.09375 C 25.925781 -4.707031 25.445312 -5.273438 25 -5.796875 C 24.5625 -6.328125 24.289062 -6.648438 24.1875 -6.765625 C 24.113281 -6.828125 23.953125 -6.984375 23.703125 -7.234375 C 23.460938 -7.484375 23.304688 -7.640625 23.234375 -7.703125 C 23.234375 -7.742188 23.195312 -7.851562 23.125 -8.03125 C 23.0625 -8.207031 23.03125 -8.328125 23.03125 -8.390625 C 22.988281 -8.429688 22.921875 -8.539062 22.828125 -8.71875 C 22.742188 -8.894531 22.671875 -9.015625 22.609375 -9.078125 C 22.535156 -9.148438 22.359375 -9.335938 22.078125 -9.640625 C 21.796875 -9.941406 21.503906 -10.265625 21.203125 -10.609375 C 20.898438 -10.960938 20.617188 -11.296875 20.359375 -11.609375 C 20.097656 -11.929688 19.929688 -12.144531 19.859375 -12.25 C 19.785156 -12.320312 19.644531 -12.503906 19.4375 -12.796875 C 19.226562 -13.097656 19 -13.425781 18.75 -13.78125 C 18.5 -14.132812 18.257812 -14.46875 18.03125 -14.78125 C 17.800781 -15.101562 17.671875 -15.300781 17.640625 -15.375 C 17.566406 -15.4375 17.414062 -15.582031 17.1875 -15.8125 C 16.957031 -16.039062 16.789062 -16.191406 16.6875 -16.265625 L 16.6875 -15.84375 C 16.6875 -15.769531 16.703125 -15.59375 16.734375 -15.3125 C 16.773438 -15.03125 16.8125 -14.738281 16.84375 -14.4375 C 16.882812 -14.144531 16.910156 -13.863281 16.921875 -13.59375 C 16.941406 -13.332031 16.953125 -13.164062 16.953125 -13.09375 L 16.953125 -8.234375 C 16.953125 -6.898438 16.953125 -5.523438 16.953125 -4.109375 C 16.953125 -2.703125 16.863281 -1.332031 16.6875 0 C 16.6875 0.144531 16.617188 0.21875 16.484375 0.21875 C 15.671875 0.457031 14.8125 0.59375 13.90625 0.625 C 13.007812 0.664062 12.140625 0.6875 11.296875 0.6875 L 10.828125 0.6875 C 10.617188 0.6875 10.351562 0.664062 10.03125 0.625 C 9.71875 0.59375 9.398438 0.566406 9.078125 0.546875 C 8.765625 0.535156 8.492188 0.519531 8.265625 0.5 C 8.035156 0.476562 7.921875 0.46875 7.921875 0.46875 L 7.453125 0.21875 C 7.410156 -0.59375 7.375 -1.390625 7.34375 -2.171875 C 7.300781 -2.796875 7.269531 -3.453125 7.25 -4.140625 C 7.238281 -4.828125 7.234375 -5.398438 7.234375 -5.859375 Z M 7.234375 -16.953125 "/></g></g></g><g fill="#00ffff" fill-opacity="1"><g transform="translate(152.798629, 175.897431)"><g><path d="M 4.546875 0 C 4.398438 -0.03125 4.328125 -0.113281 4.328125 -0.25 C 4.328125 -0.394531 4.328125 -0.523438 4.328125 -0.640625 C 4.328125 -0.921875 4.445312 -1.226562 4.6875 -1.5625 C 4.9375 -1.894531 5.117188 -2.203125 5.234375 -2.484375 C 5.265625 -2.585938 5.332031 -2.785156 5.4375 -3.078125 C 5.539062 -3.378906 5.65625 -3.710938 5.78125 -4.078125 C 5.90625 -4.453125 6.019531 -4.789062 6.125 -5.09375 C 6.226562 -5.394531 6.300781 -5.597656 6.34375 -5.703125 C 6.375 -5.804688 6.429688 -5.960938 6.515625 -6.171875 C 6.609375 -6.390625 6.707031 -6.617188 6.8125 -6.859375 C 6.914062 -7.109375 7.007812 -7.328125 7.09375 -7.515625 C 7.1875 -7.710938 7.234375 -7.847656 7.234375 -7.921875 C 7.265625 -7.953125 7.332031 -8.054688 7.4375 -8.234375 C 7.550781 -8.410156 7.660156 -8.601562 7.765625 -8.8125 C 7.867188 -9.03125 7.960938 -9.21875 8.046875 -9.375 C 8.140625 -9.53125 8.1875 -9.644531 8.1875 -9.71875 C 8.21875 -9.851562 8.359375 -10.238281 8.609375 -10.875 C 8.859375 -11.507812 9.125 -12.1875 9.40625 -12.90625 C 9.6875 -13.632812 9.945312 -14.304688 10.1875 -14.921875 C 10.4375 -15.535156 10.597656 -15.929688 10.671875 -16.109375 C 10.734375 -16.242188 10.878906 -16.53125 11.109375 -16.96875 C 11.335938 -17.414062 11.488281 -17.707031 11.5625 -17.84375 L 20.125 -41.34375 C 20.15625 -41.414062 20.210938 -41.546875 20.296875 -41.734375 C 20.390625 -41.929688 20.476562 -42.132812 20.5625 -42.34375 C 20.65625 -42.5625 20.742188 -42.765625 20.828125 -42.953125 C 20.921875 -43.148438 20.984375 -43.300781 21.015625 -43.40625 L 21.28125 -43.671875 L 22.859375 -43.671875 C 23.003906 -43.671875 23.359375 -43.648438 23.921875 -43.609375 C 24.484375 -43.578125 25.097656 -43.550781 25.765625 -43.53125 C 26.441406 -43.519531 27.0625 -43.492188 27.625 -43.453125 C 28.1875 -43.421875 28.554688 -43.40625 28.734375 -43.40625 C 28.972656 -43.40625 29.195312 -43.414062 29.40625 -43.4375 C 29.625 -43.457031 29.859375 -43.378906 30.109375 -43.203125 C 30.390625 -42.984375 30.632812 -42.734375 30.84375 -42.453125 C 31.050781 -42.171875 31.242188 -41.890625 31.421875 -41.609375 C 31.523438 -41.429688 31.664062 -41.203125 31.84375 -40.921875 C 32.019531 -40.640625 32.1875 -40.359375 32.34375 -40.078125 C 32.5 -39.796875 32.644531 -39.539062 32.78125 -39.3125 C 32.925781 -39.082031 33.019531 -38.953125 33.0625 -38.921875 C 33.164062 -38.671875 33.335938 -38.289062 33.578125 -37.78125 C 33.828125 -37.269531 34.082031 -36.734375 34.34375 -36.171875 C 34.613281 -35.609375 34.851562 -35.097656 35.0625 -34.640625 C 35.28125 -34.179688 35.421875 -33.882812 35.484375 -33.75 C 35.523438 -33.644531 35.597656 -33.421875 35.703125 -33.078125 C 35.804688 -32.742188 35.925781 -32.382812 36.0625 -32 C 36.207031 -31.613281 36.332031 -31.253906 36.4375 -30.921875 C 36.539062 -30.585938 36.613281 -30.367188 36.65625 -30.265625 C 37.320312 -28.398438 38.128906 -26.59375 39.078125 -24.84375 C 40.023438 -23.101562 40.867188 -21.316406 41.609375 -19.484375 C 41.679688 -19.273438 41.835938 -18.84375 42.078125 -18.1875 C 42.328125 -17.539062 42.617188 -16.773438 42.953125 -15.890625 C 43.296875 -15.015625 43.640625 -14.082031 43.984375 -13.09375 C 44.335938 -12.113281 44.679688 -11.191406 45.015625 -10.328125 C 45.347656 -9.460938 45.640625 -8.710938 45.890625 -8.078125 C 46.140625 -7.441406 46.300781 -7.019531 46.375 -6.8125 C 46.40625 -6.664062 46.539062 -6.335938 46.78125 -5.828125 C 47.03125 -5.316406 47.191406 -4.976562 47.265625 -4.8125 C 47.335938 -4.632812 47.460938 -4.375 47.640625 -4.03125 C 47.816406 -3.695312 47.988281 -3.335938 48.15625 -2.953125 C 48.332031 -2.566406 48.507812 -2.207031 48.6875 -1.875 C 48.863281 -1.539062 48.988281 -1.300781 49.0625 -1.15625 L 49.0625 -0.953125 C 49.0625 -0.773438 48.988281 -0.625 48.84375 -0.5 C 48.707031 -0.375 48.539062 -0.273438 48.34375 -0.203125 C 48.15625 -0.140625 47.953125 -0.0859375 47.734375 -0.046875 C 47.523438 -0.015625 47.367188 0 47.265625 0 C 47.160156 0 46.894531 0 46.46875 0 C 46.050781 0 45.601562 0 45.125 0 C 44.644531 0 44.191406 0 43.765625 0 C 43.347656 0 43.085938 0 42.984375 0 C 42.492188 0 41.992188 0.078125 41.484375 0.234375 C 40.972656 0.390625 40.4375 0.46875 39.875 0.46875 C 39.59375 0.46875 39.363281 0.457031 39.1875 0.4375 C 39.007812 0.425781 38.765625 0.351562 38.453125 0.21875 C 38.453125 0.21875 38.414062 0.179688 38.34375 0.109375 L 38.234375 0 C 37.921875 -0.59375 37.679688 -1.070312 37.515625 -1.4375 C 37.359375 -1.8125 37.140625 -2.316406 36.859375 -2.953125 C 36.785156 -3.023438 36.660156 -3.253906 36.484375 -3.640625 C 36.316406 -4.023438 36.210938 -4.253906 36.171875 -4.328125 C 35.960938 -4.992188 35.835938 -5.570312 35.796875 -6.0625 C 35.765625 -6.5625 35.519531 -7.109375 35.0625 -7.703125 C 35.03125 -7.742188 34.960938 -7.789062 34.859375 -7.84375 C 34.753906 -7.894531 34.664062 -7.921875 34.59375 -7.921875 C 34.3125 -7.921875 33.84375 -7.9375 33.1875 -7.96875 C 32.539062 -8.007812 31.847656 -8.035156 31.109375 -8.046875 C 30.367188 -8.066406 29.660156 -8.09375 28.984375 -8.125 C 28.316406 -8.164062 27.84375 -8.1875 27.5625 -8.1875 C 27.5 -8.1875 27.351562 -8.191406 27.125 -8.203125 C 26.894531 -8.222656 26.640625 -8.25 26.359375 -8.28125 C 26.078125 -8.320312 25.8125 -8.347656 25.5625 -8.359375 C 25.3125 -8.378906 25.171875 -8.390625 25.140625 -8.390625 L 24.140625 -8.390625 C 23.148438 -8.390625 22.171875 -8.351562 21.203125 -8.28125 C 20.234375 -8.21875 19.273438 -8.097656 18.328125 -7.921875 C 17.722656 -7.816406 17.289062 -7.539062 17.03125 -7.09375 C 16.769531 -6.65625 16.515625 -6.191406 16.265625 -5.703125 C 16.234375 -5.597656 16.160156 -5.40625 16.046875 -5.125 C 15.941406 -4.84375 15.828125 -4.550781 15.703125 -4.25 C 15.585938 -3.945312 15.472656 -3.671875 15.359375 -3.421875 C 15.253906 -3.179688 15.1875 -3.023438 15.15625 -2.953125 C 15.125 -2.890625 15.0625 -2.722656 14.96875 -2.453125 C 14.882812 -2.191406 14.785156 -1.910156 14.671875 -1.609375 C 14.566406 -1.304688 14.472656 -1.023438 14.390625 -0.765625 C 14.304688 -0.503906 14.265625 -0.335938 14.265625 -0.265625 C 13.984375 0.441406 13.664062 0.8125 13.3125 0.84375 C 12.957031 0.875 12.445312 0.890625 11.78125 0.890625 C 10.539062 0.890625 9.359375 0.738281 8.234375 0.4375 C 7.109375 0.144531 5.878906 0 4.546875 0 Z M 26.03125 -29.203125 C 26 -29.171875 25.957031 -29.09375 25.90625 -28.96875 C 25.851562 -28.84375 25.828125 -28.765625 25.828125 -28.734375 C 25.828125 -28.660156 25.789062 -28.535156 25.71875 -28.359375 C 25.644531 -28.179688 25.5625 -27.992188 25.46875 -27.796875 C 25.382812 -27.609375 25.304688 -27.414062 25.234375 -27.21875 C 25.171875 -27.03125 25.140625 -26.914062 25.140625 -26.875 C 25.097656 -26.84375 25.035156 -26.726562 24.953125 -26.53125 C 24.867188 -26.34375 24.769531 -26.132812 24.65625 -25.90625 C 24.550781 -25.675781 24.453125 -25.453125 24.359375 -25.234375 C 24.273438 -25.023438 24.21875 -24.90625 24.1875 -24.875 C 24.007812 -24.445312 23.796875 -23.878906 23.546875 -23.171875 C 23.304688 -22.472656 23.0625 -21.78125 22.8125 -21.09375 C 22.5625 -20.40625 22.359375 -19.816406 22.203125 -19.328125 C 22.046875 -18.835938 21.96875 -18.59375 21.96875 -18.59375 L 21.96875 -18.109375 L 30.578125 -18.109375 C 30.609375 -18.109375 30.675781 -18.171875 30.78125 -18.296875 C 30.894531 -18.421875 30.984375 -18.519531 31.046875 -18.59375 L 31.046875 -18.796875 C 31.046875 -19.078125 30.957031 -19.421875 30.78125 -19.828125 C 30.613281 -20.234375 30.472656 -20.5625 30.359375 -20.8125 C 30.046875 -21.40625 29.660156 -22.160156 29.203125 -23.078125 C 28.742188 -23.992188 28.296875 -24.882812 27.859375 -25.75 C 27.421875 -26.613281 27.039062 -27.359375 26.71875 -27.984375 C 26.40625 -28.617188 26.25 -28.9375 26.25 -28.9375 Z M 26.03125 -29.203125 "/></g></g></g><g fill="#00ffff" fill-opacity="1"><g transform="translate(203.447716, 175.897431)"><g><path d="M 7.703125 -0.6875 C 7.703125 -1.144531 7.691406 -1.875 7.671875 -2.875 C 7.660156 -3.882812 7.632812 -5.015625 7.59375 -6.265625 C 7.5625 -7.515625 7.53125 -8.820312 7.5 -10.1875 C 7.46875 -11.5625 7.441406 -12.875 7.421875 -14.125 C 7.398438 -15.375 7.367188 -16.488281 7.328125 -17.46875 C 7.296875 -18.457031 7.265625 -19.179688 7.234375 -19.640625 C 7.234375 -19.859375 7.1875 -20.390625 7.09375 -21.234375 C 7.007812 -22.078125 6.929688 -22.984375 6.859375 -23.953125 C 6.796875 -24.921875 6.726562 -25.828125 6.65625 -26.671875 C 6.582031 -27.515625 6.546875 -28.039062 6.546875 -28.25 C 6.410156 -28.351562 6.320312 -28.703125 6.28125 -29.296875 C 6.25 -29.898438 6.238281 -30.585938 6.25 -31.359375 C 6.269531 -32.140625 6.304688 -32.925781 6.359375 -33.71875 C 6.410156 -34.507812 6.457031 -35.117188 6.5 -35.546875 C 6.5 -35.828125 6.5 -36.253906 6.5 -36.828125 C 6.5 -37.410156 6.503906 -38 6.515625 -38.59375 C 6.535156 -39.195312 6.546875 -39.742188 6.546875 -40.234375 C 6.546875 -40.734375 6.546875 -41.050781 6.546875 -41.1875 L 6.765625 -42.9375 L 7.03125 -43.203125 C 7.164062 -43.203125 7.441406 -43.191406 7.859375 -43.171875 C 8.285156 -43.148438 8.71875 -43.140625 9.15625 -43.140625 C 9.601562 -43.140625 10.023438 -43.148438 10.421875 -43.171875 C 10.828125 -43.191406 11.117188 -43.203125 11.296875 -43.203125 C 11.441406 -43.203125 11.742188 -43.21875 12.203125 -43.25 C 12.660156 -43.289062 12.957031 -43.34375 13.09375 -43.40625 L 21.921875 -43.40625 C 21.984375 -43.40625 22.140625 -43.394531 22.390625 -43.375 C 22.640625 -43.363281 22.910156 -43.347656 23.203125 -43.328125 C 23.503906 -43.316406 23.785156 -43.289062 24.046875 -43.25 C 24.316406 -43.21875 24.503906 -43.203125 24.609375 -43.203125 C 26.117188 -43.023438 27.460938 -42.515625 28.640625 -41.671875 C 29.828125 -40.828125 30.804688 -39.804688 31.578125 -38.609375 C 32.359375 -37.410156 32.945312 -36.085938 33.34375 -34.640625 C 33.75 -33.203125 33.953125 -31.796875 33.953125 -30.421875 C 33.953125 -29.398438 33.800781 -28.316406 33.5 -27.171875 C 33.207031 -26.023438 32.769531 -24.921875 32.1875 -23.859375 C 31.601562 -22.804688 30.90625 -21.863281 30.09375 -21.03125 C 29.289062 -20.207031 28.378906 -19.601562 27.359375 -19.21875 L 27.359375 -19.015625 C 27.429688 -18.941406 27.507812 -18.78125 27.59375 -18.53125 C 27.675781 -18.289062 27.738281 -18.132812 27.78125 -18.0625 C 28.132812 -17.570312 28.503906 -17.007812 28.890625 -16.375 C 29.273438 -15.738281 29.679688 -15.175781 30.109375 -14.6875 C 30.671875 -13.976562 31.175781 -13.09375 31.625 -12.03125 C 32.082031 -10.976562 32.539062 -10.046875 33 -9.234375 C 33.070312 -9.171875 33.222656 -8.960938 33.453125 -8.609375 C 33.679688 -8.253906 33.847656 -8.023438 33.953125 -7.921875 C 33.992188 -7.847656 34.097656 -7.722656 34.265625 -7.546875 C 34.441406 -7.367188 34.550781 -7.265625 34.59375 -7.234375 C 34.59375 -7.203125 34.625 -7.085938 34.6875 -6.890625 C 34.757812 -6.691406 34.796875 -6.578125 34.796875 -6.546875 C 35.117188 -5.847656 35.507812 -5.019531 35.96875 -4.0625 C 36.425781 -3.113281 36.65625 -2.234375 36.65625 -1.421875 L 36.65625 -1.375 L 36.171875 -0.890625 C 35.890625 -0.859375 35.414062 -0.816406 34.75 -0.765625 C 34.082031 -0.710938 33.378906 -0.640625 32.640625 -0.546875 C 31.898438 -0.460938 31.191406 -0.394531 30.515625 -0.34375 C 29.847656 -0.289062 29.394531 -0.25 29.15625 -0.21875 C 29.082031 -0.21875 28.882812 -0.179688 28.5625 -0.109375 C 28.25 -0.0351562 28.078125 0 28.046875 0 L 27.515625 0 C 27.160156 0 26.90625 -0.117188 26.75 -0.359375 C 26.59375 -0.609375 26.425781 -0.875 26.25 -1.15625 C 26.144531 -1.332031 25.941406 -1.675781 25.640625 -2.1875 C 25.335938 -2.695312 25.148438 -3.023438 25.078125 -3.171875 L 20.125 -13.09375 C 19.738281 -13.832031 19.304688 -14.5625 18.828125 -15.28125 C 18.347656 -16.007812 17.789062 -16.632812 17.15625 -17.15625 L 17.15625 -16.84375 C 17.15625 -16.101562 17.207031 -15.375 17.3125 -14.65625 C 17.425781 -13.9375 17.535156 -13.207031 17.640625 -12.46875 C 17.671875 -11.96875 17.703125 -11.425781 17.734375 -10.84375 C 17.773438 -10.269531 17.882812 -9.734375 18.0625 -9.234375 L 18.0625 -0.46875 C 18.0625 -0.125 17.894531 0.109375 17.5625 0.234375 C 17.226562 0.359375 16.9375 0.4375 16.6875 0.46875 C 15.875 0.582031 15.195312 0.644531 14.65625 0.65625 C 14.113281 0.675781 13.4375 0.6875 12.625 0.6875 L 11.515625 0.6875 C 11.441406 0.6875 11.304688 0.664062 11.109375 0.625 C 10.921875 0.59375 10.710938 0.550781 10.484375 0.5 C 10.253906 0.445312 10.015625 0.394531 9.765625 0.34375 C 9.523438 0.289062 9.347656 0.25 9.234375 0.21875 C 9.097656 0.175781 8.863281 0.101562 8.53125 0 C 8.195312 -0.101562 7.992188 -0.175781 7.921875 -0.21875 C 7.847656 -0.25 7.789062 -0.328125 7.75 -0.453125 C 7.71875 -0.578125 7.703125 -0.65625 7.703125 -0.6875 Z M 16.953125 -34.109375 C 16.953125 -34.078125 16.984375 -33.972656 17.046875 -33.796875 C 17.117188 -33.617188 17.15625 -33.515625 17.15625 -33.484375 L 17.15625 -32.109375 C 17.15625 -31.796875 17.171875 -31.390625 17.203125 -30.890625 C 17.242188 -30.398438 17.273438 -29.925781 17.296875 -29.46875 C 17.316406 -29.007812 17.332031 -28.613281 17.34375 -28.28125 C 17.363281 -27.945312 17.375 -27.78125 17.375 -27.78125 L 17.640625 -27.359375 C 17.773438 -27.316406 17.914062 -27.296875 18.0625 -27.296875 L 18.796875 -27.296875 C 20.140625 -27.296875 21.285156 -27.453125 22.234375 -27.765625 C 23.179688 -28.085938 24.128906 -28.757812 25.078125 -29.78125 C 25.253906 -30 25.34375 -30.210938 25.34375 -30.421875 C 25.34375 -30.628906 25.34375 -30.859375 25.34375 -31.109375 C 25.34375 -31.179688 25.332031 -31.25 25.3125 -31.3125 C 25.300781 -31.382812 25.296875 -31.457031 25.296875 -31.53125 L 25.296875 -31.84375 C 25.265625 -32.195312 25 -32.554688 24.5 -32.921875 C 24.007812 -33.296875 23.445312 -33.613281 22.8125 -33.875 C 22.175781 -34.144531 21.539062 -34.363281 20.90625 -34.53125 C 20.28125 -34.707031 19.804688 -34.796875 19.484375 -34.796875 C 19.378906 -34.796875 19.1875 -34.785156 18.90625 -34.765625 C 18.625 -34.753906 18.34375 -34.726562 18.0625 -34.6875 C 17.78125 -34.65625 17.523438 -34.601562 17.296875 -34.53125 C 17.066406 -34.46875 16.953125 -34.382812 16.953125 -34.28125 Z M 16.953125 -34.109375 "/></g></g></g><g fill="#00ffff" fill-opacity="1"><g transform="translate(242.107916, 175.897431)"><g><path d="M 7.390625 -19.21875 C 7.359375 -19.71875 7.316406 -20.476562 7.265625 -21.5 C 7.210938 -22.519531 7.160156 -23.671875 7.109375 -24.953125 C 7.054688 -26.234375 6.992188 -27.585938 6.921875 -29.015625 C 6.847656 -30.441406 6.785156 -31.804688 6.734375 -33.109375 C 6.679688 -34.410156 6.632812 -35.570312 6.59375 -36.59375 C 6.5625 -37.613281 6.546875 -38.375 6.546875 -38.875 L 6.546875 -43.140625 C 6.546875 -43.421875 6.640625 -43.675781 6.828125 -43.90625 C 7.023438 -44.132812 7.234375 -44.320312 7.453125 -44.46875 L 11.09375 -44.46875 C 11.125 -44.46875 11.257812 -44.484375 11.5 -44.515625 C 11.75 -44.554688 12.015625 -44.582031 12.296875 -44.59375 C 12.585938 -44.613281 12.851562 -44.640625 13.09375 -44.671875 C 13.34375 -44.710938 13.503906 -44.734375 13.578125 -44.734375 C 13.785156 -44.660156 14.171875 -44.597656 14.734375 -44.546875 C 15.296875 -44.492188 15.910156 -44.46875 16.578125 -44.46875 C 17.253906 -44.46875 17.875 -44.484375 18.4375 -44.515625 C 19 -44.554688 19.382812 -44.628906 19.59375 -44.734375 L 25.078125 -44.734375 C 25.296875 -44.734375 25.6875 -44.710938 26.25 -44.671875 C 26.8125 -44.640625 27.410156 -44.597656 28.046875 -44.546875 C 28.679688 -44.492188 29.269531 -44.441406 29.8125 -44.390625 C 30.351562 -44.335938 30.734375 -44.289062 30.953125 -44.25 C 31.015625 -44.25 31.097656 -44.234375 31.203125 -44.203125 C 31.316406 -44.171875 31.390625 -44.132812 31.421875 -44.09375 C 31.523438 -43.914062 31.664062 -43.648438 31.84375 -43.296875 C 32.019531 -42.953125 32.109375 -42.757812 32.109375 -42.71875 L 32.109375 -36.546875 C 32.109375 -36.335938 31.921875 -36.109375 31.546875 -35.859375 C 31.179688 -35.609375 30.910156 -35.484375 30.734375 -35.484375 L 18.328125 -35.015625 C 18.222656 -35.015625 18.082031 -34.988281 17.90625 -34.9375 C 17.726562 -34.882812 17.640625 -34.835938 17.640625 -34.796875 C 17.609375 -34.765625 17.5625 -34.609375 17.5 -34.328125 C 17.445312 -34.046875 17.40625 -33.816406 17.375 -33.640625 C 17.375 -33.535156 17.351562 -33.394531 17.3125 -33.21875 C 17.28125 -33.039062 17.253906 -32.851562 17.234375 -32.65625 C 17.222656 -32.46875 17.207031 -32.289062 17.1875 -32.125 C 17.164062 -31.96875 17.15625 -31.875 17.15625 -31.84375 L 17.15625 -29.359375 L 18.0625 -29 L 26.875 -29 L 30.734375 -28.25 C 31.015625 -28.175781 31.242188 -27.882812 31.421875 -27.375 C 31.597656 -26.863281 31.738281 -26.300781 31.84375 -25.6875 C 31.945312 -25.070312 32.015625 -24.472656 32.046875 -23.890625 C 32.085938 -23.316406 32.109375 -22.941406 32.109375 -22.765625 C 32.109375 -21.953125 31.929688 -21.351562 31.578125 -20.96875 C 31.222656 -20.582031 30.765625 -20.304688 30.203125 -20.140625 C 29.640625 -19.984375 29.023438 -19.90625 28.359375 -19.90625 C 27.691406 -19.90625 27.039062 -19.890625 26.40625 -19.859375 C 26.09375 -19.859375 25.53125 -19.835938 24.71875 -19.796875 C 23.90625 -19.765625 23.039062 -19.738281 22.125 -19.71875 C 21.207031 -19.707031 20.34375 -19.691406 19.53125 -19.671875 C 18.726562 -19.648438 18.164062 -19.640625 17.84375 -19.640625 C 17.84375 -19.535156 17.828125 -19.332031 17.796875 -19.03125 C 17.765625 -18.738281 17.738281 -18.425781 17.71875 -18.09375 C 17.695312 -17.757812 17.675781 -17.429688 17.65625 -17.109375 C 17.644531 -16.796875 17.640625 -16.585938 17.640625 -16.484375 C 17.640625 -16.410156 17.628906 -16.117188 17.609375 -15.609375 C 17.597656 -15.097656 17.59375 -14.703125 17.59375 -14.421875 C 17.59375 -14.273438 17.59375 -14.097656 17.59375 -13.890625 C 17.59375 -13.679688 17.597656 -13.46875 17.609375 -13.25 C 17.628906 -13.039062 17.640625 -12.859375 17.640625 -12.703125 C 17.640625 -12.546875 17.640625 -12.46875 17.640625 -12.46875 C 17.640625 -12.289062 17.664062 -11.972656 17.71875 -11.515625 C 17.769531 -11.054688 17.8125 -10.753906 17.84375 -10.609375 C 17.882812 -10.398438 17.9375 -10.191406 18 -9.984375 C 18.070312 -9.773438 18.25 -9.671875 18.53125 -9.671875 L 32.3125 -9.671875 C 32.382812 -9.671875 32.578125 -9.640625 32.890625 -9.578125 C 33.210938 -9.523438 33.410156 -9.410156 33.484375 -9.234375 L 33.484375 -4.90625 C 33.484375 -4.769531 33.472656 -4.515625 33.453125 -4.140625 C 33.429688 -3.773438 33.40625 -3.390625 33.375 -2.984375 C 33.34375 -2.578125 33.316406 -2.1875 33.296875 -1.8125 C 33.273438 -1.445312 33.265625 -1.195312 33.265625 -1.0625 C 33.054688 -0.664062 32.789062 -0.429688 32.46875 -0.359375 C 32.15625 -0.296875 31.804688 -0.25 31.421875 -0.21875 C 31.109375 -0.175781 30.625 -0.117188 29.96875 -0.046875 C 29.320312 0.015625 28.644531 0.0820312 27.9375 0.15625 C 27.226562 0.226562 26.582031 0.296875 26 0.359375 C 25.425781 0.429688 25.050781 0.46875 24.875 0.46875 L 23.8125 0.46875 C 22.96875 0.46875 22.101562 0.429688 21.21875 0.359375 C 20.34375 0.296875 19.46875 0.265625 18.59375 0.265625 C 18.238281 0.265625 17.910156 0.296875 17.609375 0.359375 C 17.304688 0.429688 17 0.46875 16.6875 0.46875 C 15.5625 0.46875 14.4375 0.425781 13.3125 0.34375 C 12.1875 0.257812 11.054688 0.144531 9.921875 0 C 9.890625 0 9.75 0.00390625 9.5 0.015625 C 9.257812 0.0351562 9.117188 0.03125 9.078125 0 C 9.015625 0 8.894531 -0.0664062 8.71875 -0.203125 C 8.539062 -0.347656 8.429688 -0.421875 8.390625 -0.421875 C 8.285156 -0.492188 8.101562 -0.582031 7.84375 -0.6875 C 7.582031 -0.789062 7.453125 -0.914062 7.453125 -1.0625 L 7.390625 -17.84375 Z M 7.390625 -19.21875 "/></g></g></g><g fill="#a54b12" fill-opacity="1"><g transform="translate(111.343584, 175.897431)"><g><path d="M 7.234375 -16.953125 C 7.234375 -17.023438 7.210938 -17.15625 7.171875 -17.34375 C 7.140625 -17.539062 7.113281 -17.742188 7.09375 -17.953125 C 7.082031 -18.160156 7.066406 -18.363281 7.046875 -18.5625 C 7.035156 -18.757812 7.03125 -18.910156 7.03125 -19.015625 C 6.988281 -19.535156 6.941406 -20.316406 6.890625 -21.359375 C 6.835938 -22.398438 6.785156 -23.472656 6.734375 -24.578125 C 6.679688 -25.691406 6.632812 -26.710938 6.59375 -27.640625 C 6.5625 -28.578125 6.546875 -29.171875 6.546875 -29.421875 L 6.546875 -41.1875 C 6.578125 -41.570312 6.644531 -41.90625 6.75 -42.1875 C 6.863281 -42.476562 7.023438 -42.816406 7.234375 -43.203125 C 7.441406 -43.484375 7.816406 -43.628906 8.359375 -43.640625 C 8.910156 -43.660156 9.328125 -43.671875 9.609375 -43.671875 C 9.785156 -43.671875 10.054688 -43.660156 10.421875 -43.640625 C 10.796875 -43.628906 11.019531 -43.625 11.09375 -43.625 C 11.476562 -43.625 11.992188 -43.613281 12.640625 -43.59375 C 13.296875 -43.570312 13.921875 -43.546875 14.515625 -43.515625 C 15.222656 -43.484375 15.945312 -43.445312 16.6875 -43.40625 L 17.15625 -43.203125 L 17.15625 -40.984375 C 17.15625 -39.078125 17.117188 -37.179688 17.046875 -35.296875 C 16.984375 -33.421875 16.953125 -31.53125 16.953125 -29.625 L 16.953125 -29.421875 C 16.984375 -29.421875 17.019531 -29.4375 17.0625 -29.46875 C 17.125 -29.539062 17.15625 -29.59375 17.15625 -29.625 C 17.269531 -29.726562 17.410156 -29.90625 17.578125 -30.15625 C 17.753906 -30.40625 17.941406 -30.660156 18.140625 -30.921875 C 18.335938 -31.179688 18.515625 -31.425781 18.671875 -31.65625 C 18.828125 -31.882812 18.941406 -32.035156 19.015625 -32.109375 C 19.046875 -32.179688 19.148438 -32.375 19.328125 -32.6875 C 19.503906 -33.007812 19.609375 -33.203125 19.640625 -33.265625 C 19.859375 -33.585938 20.25 -34.117188 20.8125 -34.859375 C 21.375 -35.597656 21.96875 -36.390625 22.59375 -37.234375 C 23.226562 -38.078125 23.828125 -38.875 24.390625 -39.625 C 24.960938 -40.382812 25.351562 -40.90625 25.5625 -41.1875 C 25.84375 -41.570312 26.226562 -42.019531 26.71875 -42.53125 C 27.21875 -43.050781 27.660156 -43.503906 28.046875 -43.890625 C 28.222656 -43.890625 28.546875 -43.894531 29.015625 -43.90625 C 29.492188 -43.925781 29.992188 -43.953125 30.515625 -43.984375 C 31.046875 -44.023438 31.550781 -44.050781 32.03125 -44.0625 C 32.507812 -44.082031 32.832031 -44.09375 33 -44.09375 L 35.703125 -44.09375 C 36.117188 -44.019531 36.570312 -43.992188 37.0625 -44.015625 C 37.5625 -44.035156 38.003906 -43.90625 38.390625 -43.625 C 38.429688 -43.625 38.476562 -43.585938 38.53125 -43.515625 C 38.582031 -43.441406 38.625 -43.40625 38.65625 -43.40625 L 38.65625 -43.25 C 38.65625 -43.144531 38.609375 -42.992188 38.515625 -42.796875 C 38.429688 -42.609375 38.328125 -42.40625 38.203125 -42.1875 C 38.085938 -41.976562 37.96875 -41.785156 37.84375 -41.609375 C 37.71875 -41.429688 37.601562 -41.289062 37.5 -41.1875 C 37.28125 -40.945312 36.90625 -40.523438 36.375 -39.921875 C 35.851562 -39.328125 35.289062 -38.691406 34.6875 -38.015625 C 34.09375 -37.347656 33.519531 -36.707031 32.96875 -36.09375 C 32.425781 -35.476562 32.050781 -35.046875 31.84375 -34.796875 C 31.738281 -34.691406 31.367188 -34.234375 30.734375 -33.421875 C 30.097656 -32.617188 29.363281 -31.671875 28.53125 -30.578125 C 27.707031 -29.484375 26.863281 -28.378906 26 -27.265625 C 25.144531 -26.160156 24.453125 -25.273438 23.921875 -24.609375 C 23.816406 -24.472656 23.703125 -24.296875 23.578125 -24.078125 C 23.453125 -23.867188 23.335938 -23.675781 23.234375 -23.5 C 23.335938 -23.394531 23.492188 -23.191406 23.703125 -22.890625 C 23.921875 -22.585938 24.144531 -22.257812 24.375 -21.90625 C 24.601562 -21.5625 24.832031 -21.238281 25.0625 -20.9375 C 25.289062 -20.632812 25.457031 -20.429688 25.5625 -20.328125 C 25.695312 -20.148438 25.929688 -19.867188 26.265625 -19.484375 C 26.609375 -19.097656 26.8125 -18.867188 26.875 -18.796875 C 26.945312 -18.722656 27.140625 -18.585938 27.453125 -18.390625 C 27.773438 -18.203125 27.972656 -18.09375 28.046875 -18.0625 L 28.25 -17.84375 C 28.632812 -17.28125 29.039062 -16.742188 29.46875 -16.234375 C 29.894531 -15.722656 30.316406 -15.207031 30.734375 -14.6875 C 30.910156 -14.46875 30.988281 -14.28125 30.96875 -14.125 C 30.957031 -13.96875 31.019531 -13.785156 31.15625 -13.578125 C 31.226562 -13.503906 31.382812 -13.316406 31.625 -13.015625 C 31.875 -12.710938 32.035156 -12.53125 32.109375 -12.46875 C 32.492188 -11.863281 32.894531 -11.28125 33.3125 -10.71875 C 33.738281 -10.15625 34.164062 -9.609375 34.59375 -9.078125 C 34.625 -9.015625 34.71875 -8.894531 34.875 -8.71875 C 35.039062 -8.539062 35.207031 -8.351562 35.375 -8.15625 C 35.550781 -7.96875 35.71875 -7.773438 35.875 -7.578125 C 36.039062 -7.378906 36.140625 -7.265625 36.171875 -7.234375 C 36.242188 -7.128906 36.421875 -6.890625 36.703125 -6.515625 C 36.984375 -6.148438 37.289062 -5.742188 37.625 -5.296875 C 37.957031 -4.859375 38.28125 -4.4375 38.59375 -4.03125 C 38.914062 -3.632812 39.164062 -3.347656 39.34375 -3.171875 C 39.625 -2.785156 39.851562 -2.414062 40.03125 -2.0625 C 40.207031 -1.707031 40.296875 -1.285156 40.296875 -0.796875 C 40.296875 -0.722656 40.285156 -0.585938 40.265625 -0.390625 C 40.242188 -0.203125 40.234375 -0.0703125 40.234375 0 C 40.171875 0.03125 40.023438 0.0703125 39.796875 0.125 C 39.566406 0.1875 39.414062 0.21875 39.34375 0.21875 C 39.195312 0.21875 38.945312 0.234375 38.59375 0.265625 C 38.25 0.296875 37.875 0.320312 37.46875 0.34375 C 37.0625 0.363281 36.664062 0.390625 36.28125 0.421875 C 35.894531 0.453125 35.628906 0.46875 35.484375 0.46875 L 30.953125 0.46875 C 30.453125 0.332031 30.023438 0.0820312 29.671875 -0.28125 C 29.328125 -0.65625 29.015625 -1.019531 28.734375 -1.375 C 28.628906 -1.507812 28.347656 -1.84375 27.890625 -2.375 C 27.429688 -2.90625 26.945312 -3.476562 26.4375 -4.09375 C 25.925781 -4.707031 25.445312 -5.273438 25 -5.796875 C 24.5625 -6.328125 24.289062 -6.648438 24.1875 -6.765625 C 24.113281 -6.828125 23.953125 -6.984375 23.703125 -7.234375 C 23.460938 -7.484375 23.304688 -7.640625 23.234375 -7.703125 C 23.234375 -7.742188 23.195312 -7.851562 23.125 -8.03125 C 23.0625 -8.207031 23.03125 -8.328125 23.03125 -8.390625 C 22.988281 -8.429688 22.921875 -8.539062 22.828125 -8.71875 C 22.742188 -8.894531 22.671875 -9.015625 22.609375 -9.078125 C 22.535156 -9.148438 22.359375 -9.335938 22.078125 -9.640625 C 21.796875 -9.941406 21.503906 -10.265625 21.203125 -10.609375 C 20.898438 -10.960938 20.617188 -11.296875 20.359375 -11.609375 C 20.097656 -11.929688 19.929688 -12.144531 19.859375 -12.25 C 19.785156 -12.320312 19.644531 -12.503906 19.4375 -12.796875 C 19.226562 -13.097656 19 -13.425781 18.75 -13.78125 C 18.5 -14.132812 18.257812 -14.46875 18.03125 -14.78125 C 17.800781 -15.101562 17.671875 -15.300781 17.640625 -15.375 C 17.566406 -15.4375 17.414062 -15.582031 17.1875 -15.8125 C 16.957031 -16.039062 16.789062 -16.191406 16.6875 -16.265625 L 16.6875 -15.84375 C 16.6875 -15.769531 16.703125 -15.59375 16.734375 -15.3125 C 16.773438 -15.03125 16.8125 -14.738281 16.84375 -14.4375 C 16.882812 -14.144531 16.910156 -13.863281 16.921875 -13.59375 C 16.941406 -13.332031 16.953125 -13.164062 16.953125 -13.09375 L 16.953125 -8.234375 C 16.953125 -6.898438 16.953125 -5.523438 16.953125 -4.109375 C 16.953125 -2.703125 16.863281 -1.332031 16.6875 0 C 16.6875 0.144531 16.617188 0.21875 16.484375 0.21875 C 15.671875 0.457031 14.8125 0.59375 13.90625 0.625 C 13.007812 0.664062 12.140625 0.6875 11.296875 0.6875 L 10.828125 0.6875 C 10.617188 0.6875 10.351562 0.664062 10.03125 0.625 C 9.71875 0.59375 9.398438 0.566406 9.078125 0.546875 C 8.765625 0.535156 8.492188 0.519531 8.265625 0.5 C 8.035156 0.476562 7.921875 0.46875 7.921875 0.46875 L 7.453125 0.21875 C 7.410156 -0.59375 7.375 -1.390625 7.34375 -2.171875 C 7.300781 -2.796875 7.269531 -3.453125 7.25 -4.140625 C 7.238281 -4.828125 7.234375 -5.398438 7.234375 -5.859375 Z M 7.234375 -16.953125 "/></g></g></g><g fill="#a54b12" fill-opacity="1"><g transform="translate(153.542353, 175.897431)"><g><path d="M 4.546875 0 C 4.398438 -0.03125 4.328125 -0.113281 4.328125 -0.25 C 4.328125 -0.394531 4.328125 -0.523438 4.328125 -0.640625 C 4.328125 -0.921875 4.445312 -1.226562 4.6875 -1.5625 C 4.9375 -1.894531 5.117188 -2.203125 5.234375 -2.484375 C 5.265625 -2.585938 5.332031 -2.785156 5.4375 -3.078125 C 5.539062 -3.378906 5.65625 -3.710938 5.78125 -4.078125 C 5.90625 -4.453125 6.019531 -4.789062 6.125 -5.09375 C 6.226562 -5.394531 6.300781 -5.597656 6.34375 -5.703125 C 6.375 -5.804688 6.429688 -5.960938 6.515625 -6.171875 C 6.609375 -6.390625 6.707031 -6.617188 6.8125 -6.859375 C 6.914062 -7.109375 7.007812 -7.328125 7.09375 -7.515625 C 7.1875 -7.710938 7.234375 -7.847656 7.234375 -7.921875 C 7.265625 -7.953125 7.332031 -8.054688 7.4375 -8.234375 C 7.550781 -8.410156 7.660156 -8.601562 7.765625 -8.8125 C 7.867188 -9.03125 7.960938 -9.21875 8.046875 -9.375 C 8.140625 -9.53125 8.1875 -9.644531 8.1875 -9.71875 C 8.21875 -9.851562 8.359375 -10.238281 8.609375 -10.875 C 8.859375 -11.507812 9.125 -12.1875 9.40625 -12.90625 C 9.6875 -13.632812 9.945312 -14.304688 10.1875 -14.921875 C 10.4375 -15.535156 10.597656 -15.929688 10.671875 -16.109375 C 10.734375 -16.242188 10.878906 -16.53125 11.109375 -16.96875 C 11.335938 -17.414062 11.488281 -17.707031 11.5625 -17.84375 L 20.125 -41.34375 C 20.15625 -41.414062 20.210938 -41.546875 20.296875 -41.734375 C 20.390625 -41.929688 20.476562 -42.132812 20.5625 -42.34375 C 20.65625 -42.5625 20.742188 -42.765625 20.828125 -42.953125 C 20.921875 -43.148438 20.984375 -43.300781 21.015625 -43.40625 L 21.28125 -43.671875 L 22.859375 -43.671875 C 23.003906 -43.671875 23.359375 -43.648438 23.921875 -43.609375 C 24.484375 -43.578125 25.097656 -43.550781 25.765625 -43.53125 C 26.441406 -43.519531 27.0625 -43.492188 27.625 -43.453125 C 28.1875 -43.421875 28.554688 -43.40625 28.734375 -43.40625 C 28.972656 -43.40625 29.195312 -43.414062 29.40625 -43.4375 C 29.625 -43.457031 29.859375 -43.378906 30.109375 -43.203125 C 30.390625 -42.984375 30.632812 -42.734375 30.84375 -42.453125 C 31.050781 -42.171875 31.242188 -41.890625 31.421875 -41.609375 C 31.523438 -41.429688 31.664062 -41.203125 31.84375 -40.921875 C 32.019531 -40.640625 32.1875 -40.359375 32.34375 -40.078125 C 32.5 -39.796875 32.644531 -39.539062 32.78125 -39.3125 C 32.925781 -39.082031 33.019531 -38.953125 33.0625 -38.921875 C 33.164062 -38.671875 33.335938 -38.289062 33.578125 -37.78125 C 33.828125 -37.269531 34.082031 -36.734375 34.34375 -36.171875 C 34.613281 -35.609375 34.851562 -35.097656 35.0625 -34.640625 C 35.28125 -34.179688 35.421875 -33.882812 35.484375 -33.75 C 35.523438 -33.644531 35.597656 -33.421875 35.703125 -33.078125 C 35.804688 -32.742188 35.925781 -32.382812 36.0625 -32 C 36.207031 -31.613281 36.332031 -31.253906 36.4375 -30.921875 C 36.539062 -30.585938 36.613281 -30.367188 36.65625 -30.265625 C 37.320312 -28.398438 38.128906 -26.59375 39.078125 -24.84375 C 40.023438 -23.101562 40.867188 -21.316406 41.609375 -19.484375 C 41.679688 -19.273438 41.835938 -18.84375 42.078125 -18.1875 C 42.328125 -17.539062 42.617188 -16.773438 42.953125 -15.890625 C 43.296875 -15.015625 43.640625 -14.082031 43.984375 -13.09375 C 44.335938 -12.113281 44.679688 -11.191406 45.015625 -10.328125 C 45.347656 -9.460938 45.640625 -8.710938 45.890625 -8.078125 C 46.140625 -7.441406 46.300781 -7.019531 46.375 -6.8125 C 46.40625 -6.664062 46.539062 -6.335938 46.78125 -5.828125 C 47.03125 -5.316406 47.191406 -4.976562 47.265625 -4.8125 C 47.335938 -4.632812 47.460938 -4.375 47.640625 -4.03125 C 47.816406 -3.695312 47.988281 -3.335938 48.15625 -2.953125 C 48.332031 -2.566406 48.507812 -2.207031 48.6875 -1.875 C 48.863281 -1.539062 48.988281 -1.300781 49.0625 -1.15625 L 49.0625 -0.953125 C 49.0625 -0.773438 48.988281 -0.625 48.84375 -0.5 C 48.707031 -0.375 48.539062 -0.273438 48.34375 -0.203125 C 48.15625 -0.140625 47.953125 -0.0859375 47.734375 -0.046875 C 47.523438 -0.015625 47.367188 0 47.265625 0 C 47.160156 0 46.894531 0 46.46875 0 C 46.050781 0 45.601562 0 45.125 0 C 44.644531 0 44.191406 0 43.765625 0 C 43.347656 0 43.085938 0 42.984375 0 C 42.492188 0 41.992188 0.078125 41.484375 0.234375 C 40.972656 0.390625 40.4375 0.46875 39.875 0.46875 C 39.59375 0.46875 39.363281 0.457031 39.1875 0.4375 C 39.007812 0.425781 38.765625 0.351562 38.453125 0.21875 C 38.453125 0.21875 38.414062 0.179688 38.34375 0.109375 L 38.234375 0 C 37.921875 -0.59375 37.679688 -1.070312 37.515625 -1.4375 C 37.359375 -1.8125 37.140625 -2.316406 36.859375 -2.953125 C 36.785156 -3.023438 36.660156 -3.253906 36.484375 -3.640625 C 36.316406 -4.023438 36.210938 -4.253906 36.171875 -4.328125 C 35.960938 -4.992188 35.835938 -5.570312 35.796875 -6.0625 C 35.765625 -6.5625 35.519531 -7.109375 35.0625 -7.703125 C 35.03125 -7.742188 34.960938 -7.789062 34.859375 -7.84375 C 34.753906 -7.894531 34.664062 -7.921875 34.59375 -7.921875 C 34.3125 -7.921875 33.84375 -7.9375 33.1875 -7.96875 C 32.539062 -8.007812 31.847656 -8.035156 31.109375 -8.046875 C 30.367188 -8.066406 29.660156 -8.09375 28.984375 -8.125 C 28.316406 -8.164062 27.84375 -8.1875 27.5625 -8.1875 C 27.5 -8.1875 27.351562 -8.191406 27.125 -8.203125 C 26.894531 -8.222656 26.640625 -8.25 26.359375 -8.28125 C 26.078125 -8.320312 25.8125 -8.347656 25.5625 -8.359375 C 25.3125 -8.378906 25.171875 -8.390625 25.140625 -8.390625 L 24.140625 -8.390625 C 23.148438 -8.390625 22.171875 -8.351562 21.203125 -8.28125 C 20.234375 -8.21875 19.273438 -8.097656 18.328125 -7.921875 C 17.722656 -7.816406 17.289062 -7.539062 17.03125 -7.09375 C 16.769531 -6.65625 16.515625 -6.191406 16.265625 -5.703125 C 16.234375 -5.597656 16.160156 -5.40625 16.046875 -5.125 C 15.941406 -4.84375 15.828125 -4.550781 15.703125 -4.25 C 15.585938 -3.945312 15.472656 -3.671875 15.359375 -3.421875 C 15.253906 -3.179688 15.1875 -3.023438 15.15625 -2.953125 C 15.125 -2.890625 15.0625 -2.722656 14.96875 -2.453125 C 14.882812 -2.191406 14.785156 -1.910156 14.671875 -1.609375 C 14.566406 -1.304688 14.472656 -1.023438 14.390625 -0.765625 C 14.304688 -0.503906 14.265625 -0.335938 14.265625 -0.265625 C 13.984375 0.441406 13.664062 0.8125 13.3125 0.84375 C 12.957031 0.875 12.445312 0.890625 11.78125 0.890625 C 10.539062 0.890625 9.359375 0.738281 8.234375 0.4375 C 7.109375 0.144531 5.878906 0 4.546875 0 Z M 26.03125 -29.203125 C 26 -29.171875 25.957031 -29.09375 25.90625 -28.96875 C 25.851562 -28.84375 25.828125 -28.765625 25.828125 -28.734375 C 25.828125 -28.660156 25.789062 -28.535156 25.71875 -28.359375 C 25.644531 -28.179688 25.5625 -27.992188 25.46875 -27.796875 C 25.382812 -27.609375 25.304688 -27.414062 25.234375 -27.21875 C 25.171875 -27.03125 25.140625 -26.914062 25.140625 -26.875 C 25.097656 -26.84375 25.035156 -26.726562 24.953125 -26.53125 C 24.867188 -26.34375 24.769531 -26.132812 24.65625 -25.90625 C 24.550781 -25.675781 24.453125 -25.453125 24.359375 -25.234375 C 24.273438 -25.023438 24.21875 -24.90625 24.1875 -24.875 C 24.007812 -24.445312 23.796875 -23.878906 23.546875 -23.171875 C 23.304688 -22.472656 23.0625 -21.78125 22.8125 -21.09375 C 22.5625 -20.40625 22.359375 -19.816406 22.203125 -19.328125 C 22.046875 -18.835938 21.96875 -18.59375 21.96875 -18.59375 L 21.96875 -18.109375 L 30.578125 -18.109375 C 30.609375 -18.109375 30.675781 -18.171875 30.78125 -18.296875 C 30.894531 -18.421875 30.984375 -18.519531 31.046875 -18.59375 L 31.046875 -18.796875 C 31.046875 -19.078125 30.957031 -19.421875 30.78125 -19.828125 C 30.613281 -20.234375 30.472656 -20.5625 30.359375 -20.8125 C 30.046875 -21.40625 29.660156 -22.160156 29.203125 -23.078125 C 28.742188 -23.992188 28.296875 -24.882812 27.859375 -25.75 C 27.421875 -26.613281 27.039062 -27.359375 26.71875 -27.984375 C 26.40625 -28.617188 26.25 -28.9375 26.25 -28.9375 Z M 26.03125 -29.203125 "/></g></g></g><g fill="#a54b12" fill-opacity="1"><g transform="translate(204.19144, 175.897431)"><g><path d="M 7.703125 -0.6875 C 7.703125 -1.144531 7.691406 -1.875 7.671875 -2.875 C 7.660156 -3.882812 7.632812 -5.015625 7.59375 -6.265625 C 7.5625 -7.515625 7.53125 -8.820312 7.5 -10.1875 C 7.46875 -11.5625 7.441406 -12.875 7.421875 -14.125 C 7.398438 -15.375 7.367188 -16.488281 7.328125 -17.46875 C 7.296875 -18.457031 7.265625 -19.179688 7.234375 -19.640625 C 7.234375 -19.859375 7.1875 -20.390625 7.09375 -21.234375 C 7.007812 -22.078125 6.929688 -22.984375 6.859375 -23.953125 C 6.796875 -24.921875 6.726562 -25.828125 6.65625 -26.671875 C 6.582031 -27.515625 6.546875 -28.039062 6.546875 -28.25 C 6.410156 -28.351562 6.320312 -28.703125 6.28125 -29.296875 C 6.25 -29.898438 6.238281 -30.585938 6.25 -31.359375 C 6.269531 -32.140625 6.304688 -32.925781 6.359375 -33.71875 C 6.410156 -34.507812 6.457031 -35.117188 6.5 -35.546875 C 6.5 -35.828125 6.5 -36.253906 6.5 -36.828125 C 6.5 -37.410156 6.503906 -38 6.515625 -38.59375 C 6.535156 -39.195312 6.546875 -39.742188 6.546875 -40.234375 C 6.546875 -40.734375 6.546875 -41.050781 6.546875 -41.1875 L 6.765625 -42.9375 L 7.03125 -43.203125 C 7.164062 -43.203125 7.441406 -43.191406 7.859375 -43.171875 C 8.285156 -43.148438 8.71875 -43.140625 9.15625 -43.140625 C 9.601562 -43.140625 10.023438 -43.148438 10.421875 -43.171875 C 10.828125 -43.191406 11.117188 -43.203125 11.296875 -43.203125 C 11.441406 -43.203125 11.742188 -43.21875 12.203125 -43.25 C 12.660156 -43.289062 12.957031 -43.34375 13.09375 -43.40625 L 21.921875 -43.40625 C 21.984375 -43.40625 22.140625 -43.394531 22.390625 -43.375 C 22.640625 -43.363281 22.910156 -43.347656 23.203125 -43.328125 C 23.503906 -43.316406 23.785156 -43.289062 24.046875 -43.25 C 24.316406 -43.21875 24.503906 -43.203125 24.609375 -43.203125 C 26.117188 -43.023438 27.460938 -42.515625 28.640625 -41.671875 C 29.828125 -40.828125 30.804688 -39.804688 31.578125 -38.609375 C 32.359375 -37.410156 32.945312 -36.085938 33.34375 -34.640625 C 33.75 -33.203125 33.953125 -31.796875 33.953125 -30.421875 C 33.953125 -29.398438 33.800781 -28.316406 33.5 -27.171875 C 33.207031 -26.023438 32.769531 -24.921875 32.1875 -23.859375 C 31.601562 -22.804688 30.90625 -21.863281 30.09375 -21.03125 C 29.289062 -20.207031 28.378906 -19.601562 27.359375 -19.21875 L 27.359375 -19.015625 C 27.429688 -18.941406 27.507812 -18.78125 27.59375 -18.53125 C 27.675781 -18.289062 27.738281 -18.132812 27.78125 -18.0625 C 28.132812 -17.570312 28.503906 -17.007812 28.890625 -16.375 C 29.273438 -15.738281 29.679688 -15.175781 30.109375 -14.6875 C 30.671875 -13.976562 31.175781 -13.09375 31.625 -12.03125 C 32.082031 -10.976562 32.539062 -10.046875 33 -9.234375 C 33.070312 -9.171875 33.222656 -8.960938 33.453125 -8.609375 C 33.679688 -8.253906 33.847656 -8.023438 33.953125 -7.921875 C 33.992188 -7.847656 34.097656 -7.722656 34.265625 -7.546875 C 34.441406 -7.367188 34.550781 -7.265625 34.59375 -7.234375 C 34.59375 -7.203125 34.625 -7.085938 34.6875 -6.890625 C 34.757812 -6.691406 34.796875 -6.578125 34.796875 -6.546875 C 35.117188 -5.847656 35.507812 -5.019531 35.96875 -4.0625 C 36.425781 -3.113281 36.65625 -2.234375 36.65625 -1.421875 L 36.65625 -1.375 L 36.171875 -0.890625 C 35.890625 -0.859375 35.414062 -0.816406 34.75 -0.765625 C 34.082031 -0.710938 33.378906 -0.640625 32.640625 -0.546875 C 31.898438 -0.460938 31.191406 -0.394531 30.515625 -0.34375 C 29.847656 -0.289062 29.394531 -0.25 29.15625 -0.21875 C 29.082031 -0.21875 28.882812 -0.179688 28.5625 -0.109375 C 28.25 -0.0351562 28.078125 0 28.046875 0 L 27.515625 0 C 27.160156 0 26.90625 -0.117188 26.75 -0.359375 C 26.59375 -0.609375 26.425781 -0.875 26.25 -1.15625 C 26.144531 -1.332031 25.941406 -1.675781 25.640625 -2.1875 C 25.335938 -2.695312 25.148438 -3.023438 25.078125 -3.171875 L 20.125 -13.09375 C 19.738281 -13.832031 19.304688 -14.5625 18.828125 -15.28125 C 18.347656 -16.007812 17.789062 -16.632812 17.15625 -17.15625 L 17.15625 -16.84375 C 17.15625 -16.101562 17.207031 -15.375 17.3125 -14.65625 C 17.425781 -13.9375 17.535156 -13.207031 17.640625 -12.46875 C 17.671875 -11.96875 17.703125 -11.425781 17.734375 -10.84375 C 17.773438 -10.269531 17.882812 -9.734375 18.0625 -9.234375 L 18.0625 -0.46875 C 18.0625 -0.125 17.894531 0.109375 17.5625 0.234375 C 17.226562 0.359375 16.9375 0.4375 16.6875 0.46875 C 15.875 0.582031 15.195312 0.644531 14.65625 0.65625 C 14.113281 0.675781 13.4375 0.6875 12.625 0.6875 L 11.515625 0.6875 C 11.441406 0.6875 11.304688 0.664062 11.109375 0.625 C 10.921875 0.59375 10.710938 0.550781 10.484375 0.5 C 10.253906 0.445312 10.015625 0.394531 9.765625 0.34375 C 9.523438 0.289062 9.347656 0.25 9.234375 0.21875 C 9.097656 0.175781 8.863281 0.101562 8.53125 0 C 8.195312 -0.101562 7.992188 -0.175781 7.921875 -0.21875 C 7.847656 -0.25 7.789062 -0.328125 7.75 -0.453125 C 7.71875 -0.578125 7.703125 -0.65625 7.703125 -0.6875 Z M 16.953125 -34.109375 C 16.953125 -34.078125 16.984375 -33.972656 17.046875 -33.796875 C 17.117188 -33.617188 17.15625 -33.515625 17.15625 -33.484375 L 17.15625 -32.109375 C 17.15625 -31.796875 17.171875 -31.390625 17.203125 -30.890625 C 17.242188 -30.398438 17.273438 -29.925781 17.296875 -29.46875 C 17.316406 -29.007812 17.332031 -28.613281 17.34375 -28.28125 C 17.363281 -27.945312 17.375 -27.78125 17.375 -27.78125 L 17.640625 -27.359375 C 17.773438 -27.316406 17.914062 -27.296875 18.0625 -27.296875 L 18.796875 -27.296875 C 20.140625 -27.296875 21.285156 -27.453125 22.234375 -27.765625 C 23.179688 -28.085938 24.128906 -28.757812 25.078125 -29.78125 C 25.253906 -30 25.34375 -30.210938 25.34375 -30.421875 C 25.34375 -30.628906 25.34375 -30.859375 25.34375 -31.109375 C 25.34375 -31.179688 25.332031 -31.25 25.3125 -31.3125 C 25.300781 -31.382812 25.296875 -31.457031 25.296875 -31.53125 L 25.296875 -31.84375 C 25.265625 -32.195312 25 -32.554688 24.5 -32.921875 C 24.007812 -33.296875 23.445312 -33.613281 22.8125 -33.875 C 22.175781 -34.144531 21.539062 -34.363281 20.90625 -34.53125 C 20.28125 -34.707031 19.804688 -34.796875 19.484375 -34.796875 C 19.378906 -34.796875 19.1875 -34.785156 18.90625 -34.765625 C 18.625 -34.753906 18.34375 -34.726562 18.0625 -34.6875 C 17.78125 -34.65625 17.523438 -34.601562 17.296875 -34.53125 C 17.066406 -34.46875 16.953125 -34.382812 16.953125 -34.28125 Z M 16.953125 -34.109375 "/></g></g></g><g fill="#a54b12" fill-opacity="1"><g transform="translate(242.851639, 175.897431)"><g><path d="M 7.390625 -19.21875 C 7.359375 -19.71875 7.316406 -20.476562 7.265625 -21.5 C 7.210938 -22.519531 7.160156 -23.671875 7.109375 -24.953125 C 7.054688 -26.234375 6.992188 -27.585938 6.921875 -29.015625 C 6.847656 -30.441406 6.785156 -31.804688 6.734375 -33.109375 C 6.679688 -34.410156 6.632812 -35.570312 6.59375 -36.59375 C 6.5625 -37.613281 6.546875 -38.375 6.546875 -38.875 L 6.546875 -43.140625 C 6.546875 -43.421875 6.640625 -43.675781 6.828125 -43.90625 C 7.023438 -44.132812 7.234375 -44.320312 7.453125 -44.46875 L 11.09375 -44.46875 C 11.125 -44.46875 11.257812 -44.484375 11.5 -44.515625 C 11.75 -44.554688 12.015625 -44.582031 12.296875 -44.59375 C 12.585938 -44.613281 12.851562 -44.640625 13.09375 -44.671875 C 13.34375 -44.710938 13.503906 -44.734375 13.578125 -44.734375 C 13.785156 -44.660156 14.171875 -44.597656 14.734375 -44.546875 C 15.296875 -44.492188 15.910156 -44.46875 16.578125 -44.46875 C 17.253906 -44.46875 17.875 -44.484375 18.4375 -44.515625 C 19 -44.554688 19.382812 -44.628906 19.59375 -44.734375 L 25.078125 -44.734375 C 25.296875 -44.734375 25.6875 -44.710938 26.25 -44.671875 C 26.8125 -44.640625 27.410156 -44.597656 28.046875 -44.546875 C 28.679688 -44.492188 29.269531 -44.441406 29.8125 -44.390625 C 30.351562 -44.335938 30.734375 -44.289062 30.953125 -44.25 C 31.015625 -44.25 31.097656 -44.234375 31.203125 -44.203125 C 31.316406 -44.171875 31.390625 -44.132812 31.421875 -44.09375 C 31.523438 -43.914062 31.664062 -43.648438 31.84375 -43.296875 C 32.019531 -42.953125 32.109375 -42.757812 32.109375 -42.71875 L 32.109375 -36.546875 C 32.109375 -36.335938 31.921875 -36.109375 31.546875 -35.859375 C 31.179688 -35.609375 30.910156 -35.484375 30.734375 -35.484375 L 18.328125 -35.015625 C 18.222656 -35.015625 18.082031 -34.988281 17.90625 -34.9375 C 17.726562 -34.882812 17.640625 -34.835938 17.640625 -34.796875 C 17.609375 -34.765625 17.5625 -34.609375 17.5 -34.328125 C 17.445312 -34.046875 17.40625 -33.816406 17.375 -33.640625 C 17.375 -33.535156 17.351562 -33.394531 17.3125 -33.21875 C 17.28125 -33.039062 17.253906 -32.851562 17.234375 -32.65625 C 17.222656 -32.46875 17.207031 -32.289062 17.1875 -32.125 C 17.164062 -31.96875 17.15625 -31.875 17.15625 -31.84375 L 17.15625 -29.359375 L 18.0625 -29 L 26.875 -29 L 30.734375 -28.25 C 31.015625 -28.175781 31.242188 -27.882812 31.421875 -27.375 C 31.597656 -26.863281 31.738281 -26.300781 31.84375 -25.6875 C 31.945312 -25.070312 32.015625 -24.472656 32.046875 -23.890625 C 32.085938 -23.316406 32.109375 -22.941406 32.109375 -22.765625 C 32.109375 -21.953125 31.929688 -21.351562 31.578125 -20.96875 C 31.222656 -20.582031 30.765625 -20.304688 30.203125 -20.140625 C 29.640625 -19.984375 29.023438 -19.90625 28.359375 -19.90625 C 27.691406 -19.90625 27.039062 -19.890625 26.40625 -19.859375 C 26.09375 -19.859375 25.53125 -19.835938 24.71875 -19.796875 C 23.90625 -19.765625 23.039062 -19.738281 22.125 -19.71875 C 21.207031 -19.707031 20.34375 -19.691406 19.53125 -19.671875 C 18.726562 -19.648438 18.164062 -19.640625 17.84375 -19.640625 C 17.84375 -19.535156 17.828125 -19.332031 17.796875 -19.03125 C 17.765625 -18.738281 17.738281 -18.425781 17.71875 -18.09375 C 17.695312 -17.757812 17.675781 -17.429688 17.65625 -17.109375 C 17.644531 -16.796875 17.640625 -16.585938 17.640625 -16.484375 C 17.640625 -16.410156 17.628906 -16.117188 17.609375 -15.609375 C 17.597656 -15.097656 17.59375 -14.703125 17.59375 -14.421875 C 17.59375 -14.273438 17.59375 -14.097656 17.59375 -13.890625 C 17.59375 -13.679688 17.597656 -13.46875 17.609375 -13.25 C 17.628906 -13.039062 17.640625 -12.859375 17.640625 -12.703125 C 17.640625 -12.546875 17.640625 -12.46875 17.640625 -12.46875 C 17.640625 -12.289062 17.664062 -11.972656 17.71875 -11.515625 C 17.769531 -11.054688 17.8125 -10.753906 17.84375 -10.609375 C 17.882812 -10.398438 17.9375 -10.191406 18 -9.984375 C 18.070312 -9.773438 18.25 -9.671875 18.53125 -9.671875 L 32.3125 -9.671875 C 32.382812 -9.671875 32.578125 -9.640625 32.890625 -9.578125 C 33.210938 -9.523438 33.410156 -9.410156 33.484375 -9.234375 L 33.484375 -4.90625 C 33.484375 -4.769531 33.472656 -4.515625 33.453125 -4.140625 C 33.429688 -3.773438 33.40625 -3.390625 33.375 -2.984375 C 33.34375 -2.578125 33.316406 -2.1875 33.296875 -1.8125 C 33.273438 -1.445312 33.265625 -1.195312 33.265625 -1.0625 C 33.054688 -0.664062 32.789062 -0.429688 32.46875 -0.359375 C 32.15625 -0.296875 31.804688 -0.25 31.421875 -0.21875 C 31.109375 -0.175781 30.625 -0.117188 29.96875 -0.046875 C 29.320312 0.015625 28.644531 0.0820312 27.9375 0.15625 C 27.226562 0.226562 26.582031 0.296875 26 0.359375 C 25.425781 0.429688 25.050781 0.46875 24.875 0.46875 L 23.8125 0.46875 C 22.96875 0.46875 22.101562 0.429688 21.21875 0.359375 C 20.34375 0.296875 19.46875 0.265625 18.59375 0.265625 C 18.238281 0.265625 17.910156 0.296875 17.609375 0.359375 C 17.304688 0.429688 17 0.46875 16.6875 0.46875 C 15.5625 0.46875 14.4375 0.425781 13.3125 0.34375 C 12.1875 0.257812 11.054688 0.144531 9.921875 0 C 9.890625 0 9.75 0.00390625 9.5 0.015625 C 9.257812 0.0351562 9.117188 0.03125 9.078125 0 C 9.015625 0 8.894531 -0.0664062 8.71875 -0.203125 C 8.539062 -0.347656 8.429688 -0.421875 8.390625 -0.421875 C 8.285156 -0.492188 8.101562 -0.582031 7.84375 -0.6875 C 7.582031 -0.789062 7.453125 -0.914062 7.453125 -1.0625 L 7.390625 -17.84375 Z M 7.390625 -19.21875 "/></g></g></g><g clip-path="url(#e15a806ac8)"><path fill="#fccc2c" d="M 176.28125 255.28125 C 176.472656 250.453125 177.207031 245.667969 178.195312 240.945312 C 179.3125 236.355469 179.796875 231.644531 179.484375 226.921875 C 179.195312 216.984375 174.796875 203.328125 163.371094 202.085938 C 157.351562 201.515625 152.242188 205.925781 146.378906 206.226562 C 135.535156 206.335938 135.171875 195.144531 129.007812 194.714844 C 116.917969 197.257812 120.457031 187.007812 112.292969 180.722656 C 110.882812 179.710938 109.28125 178.933594 107.570312 178.621094 C 107.367188 178.578125 107.171875 178.523438 106.992188 178.417969 C 106.464844 178.113281 106.269531 177.769531 106.257812 177.585938 C 106.25 177.242188 106.527344 176.917969 106.882812 176.917969 C 106.882812 176.917969 276.914062 176.894531 282.570312 176.917969 C 282.925781 176.917969 283.226562 177.1875 283.238281 177.542969 C 283.25 177.886719 278.234375 181.464844 276.0625 182.566406 C 272.191406 184.441406 268.535156 186.769531 265.457031 189.777344 C 263.253906 191.867188 262.039062 194.703125 260.035156 196.957031 C 257.550781 200.050781 252.789062 201.277344 249.734375 198.292969 C 247.226562 195.628906 246.011719 191.09375 241.828125 190.519531 C 231.167969 189.355469 226.144531 201.699219 221.402344 209.148438 C 217.109375 215.691406 210.742188 215.820312 205.792969 209.902344 C 202.019531 205.890625 198.328125 196.332031 191.488281 200.242188 C 184.617188 205.203125 182.789062 222.179688 183.347656 230.222656 C 184.304688 236.386719 186.929688 242.238281 187.15625 248.511719 C 187.121094 253.578125 187.671875 262.34375 181.035156 263.140625 C 176.710938 263.074219 176.054688 258.753906 176.28125 255.28125 Z M 176.28125 255.28125 " fill-opacity="1" fill-rule="nonzero"/></g><path fill="#ffffff" d="M 184.992188 250.949219 C 184.992188 250.949219 185.929688 259.507812 181.882812 260.292969 C 177.839844 261.070312 178.386719 258.042969 178.386719 258.042969 C 178.386719 258.042969 184.445312 262.472656 184.992188 250.949219 Z M 253.851562 197.097656 C 251.519531 197.097656 250.28125 195.621094 250.28125 195.621094 C 250.28125 195.621094 250.796875 198.402344 254.367188 198.140625 C 257.9375 197.882812 259.5 193.109375 259.5 193.109375 C 257.476562 193.109375 256.175781 197.097656 253.851562 197.097656 Z M 208.6875 209.136719 C 208.6875 209.136719 210.324219 211.9375 213.96875 211.625 C 217.617188 211.3125 219.324219 207.574219 219.324219 207.574219 C 213.3125 212.671875 208.6875 209.136719 208.6875 209.136719 Z M 138.246094 198.089844 C 138.246094 198.089844 140.324219 202.605469 143.429688 203.585938 C 146.539062 204.566406 150.421875 202.753906 150.421875 202.753906 C 142.96875 204.78125 138.246094 198.089844 138.246094 198.089844 Z M 145.863281 186.933594 C 145.863281 186.933594 146.539062 188.699219 148.863281 188.957031 C 151.195312 189.21875 152.488281 187.246094 152.488281 187.246094 C 148.605469 189.054688 145.863281 186.933594 145.863281 186.933594 Z M 173.257812 188.589844 C 173.257812 188.589844 174.546875 191.707031 179 192.257812 C 183.453125 192.804688 186.929688 189.582031 186.929688 189.582031 C 178.023438 193.410156 173.257812 188.589844 173.257812 188.589844 Z M 213.085938 189.574219 C 215.777344 189.519531 217.023438 186.714844 217.023438 186.714844 C 213.34375 190.5 209.882812 187.179688 209.882812 187.179688 C 209.882812 187.179688 210.398438 189.625 213.085938 189.574219 Z M 213.085938 189.574219 " fill-opacity="1" fill-rule="nonzero"/><path fill="#f6eb61" d="M 238.480469 190.597656 C 234.695312 191.234375 231.714844 193.699219 229.199219 196.816406 C 225.671875 198.582031 223.757812 201.503906 223.757812 201.503906 C 227.597656 191.964844 238.480469 190.597656 238.480469 190.597656 Z M 164.46875 202.25 C 167.988281 202.894531 170.792969 204.78125 172.988281 207.347656 C 176.59375 209.339844 178.785156 212.015625 178.785156 212.015625 C 174.894531 203.378906 164.46875 202.25 164.46875 202.25 Z M 212.257812 191.210938 C 208.226562 191.210938 206.71875 179.914062 194.082031 187.804688 C 189.316406 190.78125 178.59375 197.871094 173.160156 191.210938 C 167.71875 184.550781 164.46875 185.574219 164.46875 185.574219 C 169.03125 186.609375 170.878906 198.550781 181.550781 198.078125 C 192.21875 197.601562 195.640625 186.402344 201.332031 187.234375 C 207.03125 188.0625 205.265625 192.632812 211.894531 193.097656 C 218.519531 193.5625 220.28125 184.324219 220.28125 184.324219 C 220.28125 184.324219 217.667969 191.210938 212.257812 191.210938 Z M 149.261719 190.144531 C 143.90625 190.347656 142.507812 183.136719 142.507812 183.136719 C 142.507812 183.136719 143.59375 192.398438 148.648438 192.246094 C 153.691406 192.09375 154.789062 186.253906 154.789062 186.253906 C 154.789062 186.253906 153.035156 189.992188 149.261719 190.144531 Z M 266.328125 181.972656 C 266.199219 181.972656 266.09375 182.082031 266.09375 182.210938 C 266.09375 182.339844 266.199219 182.449219 266.328125 182.449219 C 266.457031 182.449219 266.566406 182.339844 266.566406 182.210938 C 266.566406 182.070312 266.457031 181.972656 266.328125 181.972656 Z M 261.003906 181.078125 C 260.875 181.078125 260.769531 181.1875 260.769531 181.316406 C 260.769531 181.445312 260.875 181.554688 261.003906 181.554688 C 261.132812 181.554688 261.242188 181.445312 261.242188 181.316406 C 261.242188 181.175781 261.132812 181.078125 261.003906 181.078125 Z M 260.328125 184.386719 C 260.078125 184.386719 259.875 184.59375 259.875 184.839844 C 259.875 185.089844 260.078125 185.292969 260.328125 185.292969 C 260.574219 185.292969 260.777344 185.089844 260.777344 184.839844 C 260.777344 184.582031 260.574219 184.386719 260.328125 184.386719 Z M 264.039062 182.792969 C 263.757812 182.792969 263.53125 183.019531 263.53125 183.300781 C 263.53125 183.578125 263.757812 183.804688 264.039062 183.804688 C 264.316406 183.804688 264.542969 183.578125 264.542969 183.300781 C 264.542969 183.019531 264.316406 182.792969 264.039062 182.792969 Z M 225.648438 182.707031 C 225.929688 182.707031 226.15625 182.480469 226.15625 182.199219 C 226.15625 181.917969 225.929688 181.691406 225.648438 181.691406 C 225.371094 181.691406 225.144531 181.917969 225.144531 182.199219 C 225.144531 182.480469 225.371094 182.707031 225.648438 182.707031 Z M 217.292969 182.707031 C 217.570312 182.707031 217.796875 182.480469 217.796875 182.199219 C 217.796875 181.917969 217.570312 181.691406 217.292969 181.691406 C 217.011719 181.691406 216.785156 181.917969 216.785156 182.199219 C 216.785156 182.480469 217.011719 182.707031 217.292969 182.707031 Z M 220.851562 180.335938 C 220.714844 180.335938 220.605469 180.453125 220.605469 180.582031 C 220.605469 180.710938 220.722656 180.832031 220.851562 180.832031 C 220.980469 180.832031 221.101562 180.710938 221.101562 180.582031 C 221.101562 180.453125 220.992188 180.335938 220.851562 180.335938 Z M 181.722656 183.546875 C 181.863281 183.546875 181.96875 183.429688 181.96875 183.300781 C 181.96875 183.167969 181.851562 183.050781 181.722656 183.050781 C 181.59375 183.050781 181.476562 183.167969 181.476562 183.300781 C 181.476562 183.429688 181.582031 183.546875 181.722656 183.546875 Z M 176.625 182.964844 C 176.765625 182.964844 176.871094 182.847656 176.871094 182.71875 C 176.871094 182.585938 176.753906 182.46875 176.625 182.46875 C 176.496094 182.46875 176.375 182.585938 176.375 182.71875 C 176.375 182.847656 176.484375 182.964844 176.625 182.964844 Z M 179.011719 185.304688 C 179.28125 185.304688 179.496094 185.089844 179.496094 184.820312 C 179.496094 184.550781 179.28125 184.332031 179.011719 184.332031 C 178.742188 184.332031 178.527344 184.550781 178.527344 184.820312 C 178.527344 185.089844 178.742188 185.304688 179.011719 185.304688 Z M 166.082031 188.148438 C 166.082031 187.878906 165.867188 187.664062 165.597656 187.664062 C 165.332031 187.664062 165.117188 187.878906 165.117188 188.148438 C 165.117188 188.417969 165.332031 188.636719 165.597656 188.636719 C 165.867188 188.636719 166.082031 188.417969 166.082031 188.148438 Z M 128.277344 182.222656 C 128.007812 182.222656 127.792969 182.4375 127.792969 182.707031 C 127.792969 182.976562 128.007812 183.191406 128.277344 183.191406 C 128.546875 183.191406 128.761719 182.976562 128.761719 182.707031 C 128.761719 182.4375 128.546875 182.222656 128.277344 182.222656 Z M 119.285156 181.585938 C 119.015625 181.585938 118.800781 181.800781 118.800781 182.070312 C 118.800781 182.339844 119.015625 182.554688 119.285156 182.554688 C 119.554688 182.554688 119.769531 182.339844 119.769531 182.070312 C 119.769531 181.800781 119.554688 181.585938 119.285156 181.585938 Z M 122.199219 180.441406 C 121.886719 180.441406 121.628906 180.703125 121.628906 181.015625 C 121.628906 181.328125 121.886719 181.585938 122.199219 181.585938 C 122.511719 181.585938 122.769531 181.328125 122.769531 181.015625 C 122.769531 180.703125 122.511719 180.441406 122.199219 180.441406 Z M 117.378906 179.300781 C 117.070312 179.300781 116.808594 179.558594 116.808594 179.871094 C 116.808594 180.183594 117.070312 180.441406 117.378906 180.441406 C 117.691406 180.441406 117.949219 180.183594 117.949219 179.871094 C 117.949219 179.558594 117.691406 179.300781 117.378906 179.300781 Z M 124.886719 182.890625 C 124.800781 182.890625 124.738281 182.953125 124.738281 183.039062 C 124.738281 183.125 124.800781 183.191406 124.886719 183.191406 C 124.972656 183.191406 125.039062 183.125 125.039062 183.039062 C 125.050781 182.953125 124.972656 182.890625 124.886719 182.890625 Z M 113.292969 178.523438 C 113.207031 178.523438 113.144531 178.589844 113.144531 178.675781 C 113.144531 178.761719 113.207031 178.824219 113.292969 178.824219 C 113.378906 178.824219 113.445312 178.761719 113.445312 178.675781 C 113.445312 178.589844 113.367188 178.523438 113.292969 178.523438 Z M 163.890625 186.769531 C 163.804688 186.769531 163.738281 186.835938 163.738281 186.921875 C 163.738281 187.007812 163.804688 187.070312 163.890625 187.070312 C 163.976562 187.070312 164.039062 187.007812 164.039062 186.921875 C 164.039062 186.835938 163.976562 186.769531 163.890625 186.769531 Z M 121.480469 178.675781 C 121.390625 178.675781 121.328125 178.738281 121.328125 178.824219 C 121.328125 178.910156 121.390625 178.976562 121.480469 178.976562 C 121.566406 178.976562 121.628906 178.910156 121.628906 178.824219 C 121.628906 178.738281 121.554688 178.675781 121.480469 178.675781 Z M 258.046875 182.4375 C 257.808594 182.4375 257.617188 182.628906 257.617188 182.867188 C 257.617188 183.105469 257.808594 183.300781 258.046875 183.300781 C 258.285156 183.300781 258.476562 183.105469 258.476562 182.867188 C 258.476562 182.628906 258.285156 182.4375 258.046875 182.4375 Z M 258.046875 182.4375 " fill-opacity="1" fill-rule="nonzero"/></svg>